<svg width="16" height="16" viewBox="0 0 16 16" fill="none" xmlns="http://www.w3.org/2000/svg">
<path d="M10.5261 1.71287C10.5001 1.69305 10.2596 1.51415 9.8312 1.34199C9.27929 1.12018 8.64601 1.00293 7.99985 1.00293C7.3537 1.00293 6.72045 1.12018 6.16848 1.34199C5.7401 1.51415 5.4996 1.69305 5.4736 1.7129C5.40925 1.76197 5.35709 1.82524 5.32119 1.89776C5.28529 1.97029 5.26661 2.05013 5.2666 2.13105V2.95609L5.79245 3.23734L6.31832 2.95609V2.42884C6.60691 2.28155 7.18404 2.05462 7.99982 2.05462C8.81563 2.05462 9.39273 2.28155 9.68132 2.42884V2.95605L10.2072 3.2373L10.733 2.95605V2.13105C10.7331 2.05012 10.7144 1.97027 10.6785 1.89774C10.6426 1.8252 10.5904 1.76193 10.5261 1.71287Z" fill="#E8834D"/>
<path d="M5.2666 2.95605V3.53668L5.79248 3.81793L6.31835 3.53668V2.95605H5.2666ZM10.7331 2.95605H9.68135V3.53668L10.2072 3.81793L10.7331 3.53668V2.95605Z" fill="#D66E41"/>
<path d="M0.414062 9.32178V13.9934C0.414062 14.548 0.863656 14.9976 1.41825 14.9976H14.5819C15.1365 14.9976 15.5861 14.548 15.5861 13.9934V9.32178H0.414062Z" fill="#365E7D"/>
<path d="M0.414062 8.74075V9.32141C1.24831 9.98379 3.45319 11.2696 8.00009 11.2696C12.547 11.2696 14.7519 9.98379 15.5861 9.32138V8.74072H0.414062V8.74075Z" fill="#2B4D66"/>
<path d="M0.370375 8.4065C1.16991 9.05743 3.37172 10.3897 8 10.3897C12.6283 10.3897 14.8301 9.05743 15.6296 8.4065C15.864 8.21568 16 7.6485 16 7.34628V4.54081C16 3.98621 15.5504 3.53662 14.9958 3.53662H1.00419C0.449594 3.53662 0 3.98621 0 4.54081V7.34628C0 7.6485 0.136 8.21568 0.370375 8.4065Z" fill="#407093"/>
<path d="M15.6296 8.12516C14.8301 8.7761 12.6283 10.1084 8 10.1084C3.37172 10.1084 1.16994 8.77607 0.370375 8.12516C0.254653 8.03098 0.161368 7.91221 0.0973013 7.77746C0.0332345 7.64272 -4.63575e-06 7.49539 4.84935e-10 7.34619L4.84935e-10 7.92685C-4.63575e-06 8.07605 0.0332345 8.22337 0.0973013 8.35812C0.161368 8.49286 0.254653 8.61164 0.370375 8.70582C1.16991 9.35675 3.37172 10.6891 8 10.6891C12.6283 10.6891 14.8301 9.35675 15.6296 8.70582C15.7453 8.61164 15.8386 8.49286 15.9027 8.35812C15.9668 8.22337 16 8.07605 16 7.92685V7.34619C16 7.49539 15.9668 7.64272 15.9027 7.77746C15.8386 7.91221 15.7453 8.03098 15.6296 8.12516Z" fill="#365E7D"/>
<path d="M8.0002 11.6557C8.5197 11.6557 8.94082 11.27 8.94082 10.4338V9.86353C8.94082 9.67865 8.79094 9.52881 8.6061 9.52881H7.39429C7.20941 9.52881 7.05957 9.67868 7.05957 9.86353V10.4339C7.05954 11.27 7.4807 11.6557 8.0002 11.6557Z" fill="#FFE27A"/>
<path d="M8.0002 11.3742C7.4807 11.3742 7.05957 10.9531 7.05957 10.4336V11.0142C7.05957 11.5337 7.4807 11.9549 8.0002 11.9549C8.5197 11.9549 8.94082 11.5337 8.94082 11.0142V10.4336C8.94082 10.9531 8.5197 11.3742 8.0002 11.3742Z" fill="#F9CF58"/>
</svg>
