<svg width="26" height="26" viewBox="0 0 26 26" fill="none" xmlns="http://www.w3.org/2000/svg">
<circle cx="12.9425" cy="12.9425" r="12.9425" fill="#03A188"/>
<path d="M11.7324 12.5692C11.7324 12.1587 11.8955 11.7649 12.1858 11.4746C12.4761 11.1843 12.8698 11.0212 13.2804 11.0212C13.6909 11.0212 14.0847 11.1843 14.375 11.4746C14.6653 11.7649 14.8284 12.1587 14.8284 12.5692C14.8284 12.9798 14.6653 13.3735 14.375 13.6638C14.0847 13.9541 13.6909 14.1172 13.2804 14.1172C12.8698 14.1172 12.4761 13.9541 12.1858 13.6638C11.8955 13.3735 11.7324 12.9798 11.7324 12.5692Z" fill="white"/>
<path fill-rule="evenodd" clip-rule="evenodd" d="M10.1664 8.88285C10.1664 8.59898 10.2223 8.31789 10.331 8.05562C10.4396 7.79336 10.5988 7.55506 10.7995 7.35433C11.2049 6.94894 11.7548 6.72119 12.3281 6.72119H14.2324C14.8057 6.72119 15.3556 6.94894 15.761 7.35433C16.1663 7.75972 16.3941 8.30955 16.3941 8.88285C16.3942 8.88776 16.3961 8.89247 16.3994 8.89613C16.4026 8.89978 16.4071 8.90215 16.412 8.90281L17.9462 9.02664C18.6335 9.08306 19.1983 9.5908 19.327 10.2685C19.6541 11.997 19.6783 13.7693 19.3985 15.5061L19.3318 15.9217C19.2706 16.3024 19.0834 16.6516 18.8003 16.9134C18.5172 17.1752 18.1544 17.3345 17.7701 17.3658L16.4333 17.4738C14.3347 17.6442 12.2258 17.6442 10.1272 17.4738L8.79043 17.3658C8.40598 17.3344 8.04315 17.1751 7.76001 16.9131C7.47687 16.6512 7.28978 16.3018 7.2287 15.921L7.16196 15.5061C6.88195 13.769 6.90672 11.9974 7.23351 10.2685C7.296 9.93893 7.46494 9.63902 7.71439 9.4148C7.96384 9.19058 8.28 9.05446 8.61431 9.02733L10.1485 8.90281C10.1535 8.90245 10.1582 8.90017 10.1615 8.89645C10.1648 8.89273 10.1666 8.88785 10.1664 8.88285ZM13.2803 9.98914C12.596 9.98914 11.9398 10.261 11.4559 10.7448C10.9721 11.2286 10.7003 11.8849 10.7003 12.5691C10.7003 13.2533 10.9721 13.9096 11.4559 14.3934C11.9398 14.8772 12.596 15.1491 13.2803 15.1491C13.9645 15.1491 14.6207 14.8772 15.1046 14.3934C15.5884 13.9096 15.8602 13.2533 15.8602 12.5691C15.8602 11.8849 15.5884 11.2286 15.1046 10.7448C14.6207 10.261 13.9645 9.98914 13.2803 9.98914Z" fill="white"/>
</svg>
