<svg width="20" height="20" viewBox="0 0 20 20" fill="none" xmlns="http://www.w3.org/2000/svg">
<g clip-path="url(#clip0_23208_2728)">
<path d="M9.61801 16.6666H1.9993C1.26293 16.6666 0.666016 16.0697 0.666016 15.3334V14H10.8987L9.61801 16.6666Z" fill="#D3DCFB"/>
<path d="M18.0006 5.99986V15.3331H1.9993C1.26293 15.3331 0.666016 14.7362 0.666016 13.9998V5.99986L10 2.6665L18.0006 5.99986Z" fill="#EBF5FC"/>
<path d="M3.02082 8.66682H2.3125C2.22962 8.66682 2.15013 8.63389 2.09153 8.57529C2.03292 8.51668 2 8.4372 2 8.35432V7.646C2 7.56312 2.03292 7.48363 2.09153 7.42503C2.15013 7.36642 2.22962 7.3335 2.3125 7.3335H3.02082C3.1037 7.3335 3.18319 7.36642 3.24179 7.42503C3.3004 7.48363 3.33332 7.56312 3.33332 7.646V8.35432C3.33332 8.4372 3.3004 8.51668 3.24179 8.57529C3.18319 8.63389 3.1037 8.66682 3.02082 8.66682ZM5.6875 8.66682H4.97918C4.8963 8.66682 4.81681 8.63389 4.75821 8.57529C4.6996 8.51668 4.66668 8.4372 4.66668 8.35432V7.646C4.66668 7.56312 4.6996 7.48363 4.75821 7.42503C4.81681 7.36642 4.8963 7.3335 4.97918 7.3335H5.6875C5.77038 7.3335 5.84987 7.36642 5.90847 7.42503C5.96708 7.48363 6 7.56312 6 7.646V8.35432C6 8.4372 5.96708 8.51668 5.90847 8.57529C5.84987 8.63389 5.77038 8.66682 5.6875 8.66682ZM8.35414 8.66682H7.64582C7.56294 8.66682 7.48345 8.63389 7.42485 8.57529C7.36624 8.51668 7.33332 8.4372 7.33332 8.35432V7.646C7.33332 7.56312 7.36624 7.48363 7.42485 7.42503C7.48345 7.36642 7.56294 7.3335 7.64582 7.3335H8.35414C8.43702 7.3335 8.51651 7.36642 8.57511 7.42503C8.63372 7.48363 8.66664 7.56312 8.66664 7.646V8.35432C8.66664 8.4372 8.63372 8.51668 8.57511 8.57529C8.51651 8.63389 8.43702 8.66682 8.35414 8.66682ZM11.0208 8.66682H10.3125C10.2296 8.66682 10.1501 8.63389 10.0915 8.57529C10.0329 8.51668 10 8.4372 10 8.35432V7.646C10 7.56312 10.0329 7.48363 10.0915 7.42503C10.1501 7.36642 10.2296 7.3335 10.3125 7.3335H11.0208C11.1037 7.3335 11.1832 7.36642 11.2418 7.42503C11.3004 7.48363 11.3333 7.56312 11.3333 7.646V8.35432C11.3333 8.4372 11.3004 8.51668 11.2418 8.57529C11.1832 8.63389 11.1037 8.66682 11.0208 8.66682ZM13.687 8.66682H12.9787C12.8958 8.66682 12.8163 8.63389 12.7577 8.57529C12.6991 8.51668 12.6662 8.4372 12.6662 8.35432V7.646C12.6662 7.56312 12.6991 7.48363 12.7577 7.42503C12.8163 7.36642 12.8958 7.3335 12.9787 7.3335H13.687C13.7699 7.3335 13.8494 7.36642 13.908 7.42503C13.9666 7.48363 13.9995 7.56312 13.9995 7.646V8.35432C13.9995 8.4372 13.9666 8.51668 13.908 8.57529C13.8494 8.63389 13.7699 8.66682 13.687 8.66682ZM16.3537 8.66682H15.6454C15.5625 8.66682 15.483 8.63389 15.4244 8.57529C15.3658 8.51668 15.3329 8.4372 15.3329 8.35432V7.646C15.3329 7.56312 15.3658 7.48363 15.4244 7.42503C15.483 7.36642 15.5625 7.3335 15.6454 7.3335H16.3537C16.4366 7.3335 16.5161 7.36642 16.5747 7.42503C16.6333 7.48363 16.6662 7.56312 16.6662 7.646V8.35432C16.6662 8.4372 16.6333 8.51668 16.5747 8.57529C16.5161 8.63389 16.4366 8.66682 16.3537 8.66682ZM3.02082 11.3335H2.3125C2.22962 11.3335 2.15013 11.3005 2.09153 11.2419C2.03292 11.1833 2 11.1038 2 11.021V10.3126C2 10.2298 2.03292 10.1503 2.09153 10.0917C2.15013 10.0331 2.22962 10.0001 2.3125 10.0001H3.02082C3.1037 10.0001 3.18319 10.0331 3.24179 10.0917C3.3004 10.1503 3.33332 10.2298 3.33332 10.3126V11.021C3.33332 11.1038 3.3004 11.1833 3.24179 11.2419C3.18319 11.3005 3.1037 11.3335 3.02082 11.3335ZM5.6875 11.3335H4.97918C4.8963 11.3335 4.81681 11.3005 4.75821 11.2419C4.6996 11.1833 4.66668 11.1038 4.66668 11.021V10.3126C4.66668 10.2298 4.6996 10.1503 4.75821 10.0917C4.81681 10.0331 4.8963 10.0001 4.97918 10.0001H5.6875C5.77038 10.0001 5.84987 10.0331 5.90847 10.0917C5.96708 10.1503 6 10.2298 6 10.3126V11.021C6 11.1038 5.96708 11.1833 5.90847 11.2419C5.84987 11.3005 5.77038 11.3335 5.6875 11.3335ZM8.35414 11.3335H7.64582C7.56294 11.3335 7.48345 11.3005 7.42485 11.2419C7.36624 11.1833 7.33332 11.1038 7.33332 11.021V10.3126C7.33332 10.2298 7.36624 10.1503 7.42485 10.0917C7.48345 10.0331 7.56294 10.0001 7.64582 10.0001H8.35414C8.43702 10.0001 8.51651 10.0331 8.57511 10.0917C8.63372 10.1503 8.66664 10.2298 8.66664 10.3126V11.021C8.66664 11.1038 8.63372 11.1833 8.57511 11.2419C8.51651 11.3005 8.43702 11.3335 8.35414 11.3335ZM11.3333 11.3335V10.3335C11.3333 10.2897 11.3247 10.2463 11.3079 10.2059C11.2912 10.1655 11.2666 10.1287 11.2357 10.0978C11.2047 10.0668 11.168 10.0423 11.1276 10.0255C11.0871 10.0088 11.0438 10.0001 11 10.0001H10.3333C10.2449 10.0001 10.1601 10.0353 10.0976 10.0978C10.0351 10.1603 10 10.2451 10 10.3335V11.0001C10 11.0885 10.0351 11.1733 10.0976 11.2358C10.1601 11.2983 10.2449 11.3335 10.3333 11.3335H11.3333ZM3.02082 14.0001H2.3125C2.22962 14.0001 2.15013 13.9672 2.09153 13.9086C2.03292 13.85 2 13.7705 2 13.6876V12.9793C2 12.8964 2.03292 12.817 2.09153 12.7583C2.15013 12.6997 2.22962 12.6668 2.3125 12.6668H3.02082C3.1037 12.6668 3.18319 12.6997 3.24179 12.7583C3.3004 12.817 3.33332 12.8964 3.33332 12.9793V13.6876C3.33332 13.7705 3.3004 13.85 3.24179 13.9086C3.18319 13.9672 3.1037 14.0001 3.02082 14.0001ZM5.6875 14.0001H4.97918C4.8963 14.0001 4.81681 13.9672 4.75821 13.9086C4.6996 13.85 4.66668 13.7705 4.66668 13.6876V12.9793C4.66668 12.8964 4.6996 12.817 4.75821 12.7583C4.81681 12.6997 4.8963 12.6668 4.97918 12.6668H5.6875C5.77038 12.6668 5.84987 12.6997 5.90847 12.7583C5.96708 12.817 6 12.8964 6 12.9793V13.6876C6 13.7705 5.96708 13.85 5.90847 13.9086C5.84987 13.9672 5.77038 14.0001 5.6875 14.0001ZM8.35414 14.0001H7.64582C7.56294 14.0001 7.48345 13.9672 7.42485 13.9086C7.36624 13.85 7.33332 13.7705 7.33332 13.6876V12.9793C7.33332 12.8964 7.36624 12.817 7.42485 12.7583C7.48345 12.6997 7.56294 12.6668 7.64582 12.6668H8.35414C8.43702 12.6668 8.51651 12.6997 8.57511 12.7583C8.63372 12.817 8.66664 12.8964 8.66664 12.9793V13.6876C8.66664 13.7705 8.63372 13.85 8.57511 13.9086C8.51651 13.9672 8.43702 14.0001 8.35414 14.0001Z" fill="#3C58A0"/>
<path d="M16.3445 7.3335H15.655C15.6133 7.3335 15.5736 7.3417 15.537 7.35611C15.5971 7.37978 15.6487 7.42098 15.685 7.47436C15.7214 7.52774 15.7408 7.59082 15.7409 7.65541V8.34486C15.7409 8.48096 15.6563 8.59705 15.537 8.64416C15.5736 8.65861 15.6133 8.66682 15.655 8.66682H16.3445C16.4299 8.66682 16.5118 8.6329 16.5721 8.57253C16.6325 8.51216 16.6664 8.43028 16.6664 8.3449V7.65545C16.6664 7.57007 16.6325 7.48818 16.5721 7.42781C16.5118 7.36743 16.4299 7.33351 16.3445 7.3335ZM13.6778 7.3335H12.9884C12.9466 7.3335 12.9069 7.3417 12.8703 7.35611C12.9304 7.37978 12.982 7.42098 13.0183 7.47436C13.0547 7.52774 13.0742 7.59082 13.0742 7.65541V8.34486C13.0742 8.48096 12.9896 8.59705 12.8703 8.64416C12.9069 8.65861 12.9466 8.66682 12.9884 8.66682H13.6778C13.7201 8.66682 13.762 8.6585 13.801 8.64232C13.8401 8.62615 13.8756 8.60243 13.9055 8.57254C13.9353 8.54265 13.9591 8.50716 13.9752 8.4681C13.9914 8.42904 13.9997 8.38718 13.9997 8.3449V7.65545C13.9997 7.61317 13.9914 7.57131 13.9752 7.53225C13.9591 7.49319 13.9353 7.45769 13.9055 7.4278C13.8756 7.3979 13.8401 7.37418 13.801 7.358C13.762 7.34182 13.7201 7.3335 13.6778 7.3335ZM11.0116 7.3335H10.3221C10.2804 7.3335 10.2407 7.3417 10.2041 7.35611C10.3234 7.40322 10.408 7.51932 10.408 7.65541V8.34486C10.408 8.48096 10.3234 8.59705 10.2041 8.64416C10.2407 8.65861 10.2804 8.66682 10.3221 8.66682H11.0116C11.097 8.66682 11.1789 8.6329 11.2392 8.57253C11.2996 8.51216 11.3335 8.43028 11.3336 8.3449V7.65545C11.3335 7.57007 11.2996 7.48818 11.2392 7.42781C11.1789 7.36743 11.097 7.33351 11.0116 7.3335ZM8.34492 7.3335H7.65547C7.61375 7.3335 7.57402 7.3417 7.53742 7.35611C7.65676 7.40322 7.74133 7.51932 7.74133 7.65541V8.34486C7.74133 8.48096 7.65676 8.59705 7.53742 8.64416C7.57402 8.65861 7.61375 8.66682 7.65547 8.66682H8.34492C8.4303 8.66682 8.51219 8.6329 8.57256 8.57253C8.63294 8.51216 8.66686 8.43028 8.66687 8.3449V7.65545C8.66686 7.57007 8.63294 7.48818 8.57257 7.42781C8.51219 7.36743 8.43031 7.33351 8.34492 7.3335ZM5.67824 7.3335H4.98879C4.94707 7.3335 4.90734 7.3417 4.87074 7.35611C4.93084 7.37978 4.98242 7.42098 5.01878 7.47436C5.05514 7.52774 5.07459 7.59082 5.07461 7.65541V8.34486C5.07461 8.48096 4.99004 8.59705 4.87074 8.64416C4.90734 8.65861 4.94707 8.66682 4.98879 8.66682H5.67824C5.76362 8.66682 5.84551 8.6329 5.90588 8.57253C5.96626 8.51216 6.00018 8.43028 6.0002 8.3449V7.65545C6.0002 7.57006 5.96628 7.48817 5.9059 7.42779C5.84552 7.36742 5.76363 7.3335 5.67824 7.3335ZM3.0116 7.3335H2.32215C2.28043 7.3335 2.2407 7.3417 2.2041 7.35611C2.32344 7.40322 2.40801 7.51932 2.40801 7.65541V8.34486C2.40801 8.48096 2.32344 8.59705 2.2041 8.64416C2.2407 8.65861 2.28043 8.66682 2.32215 8.66682H3.0116C3.09698 8.66682 3.17887 8.6329 3.23924 8.57253C3.29962 8.51216 3.33354 8.43028 3.33355 8.3449V7.65545C3.33354 7.57007 3.29962 7.48818 3.23925 7.42781C3.17887 7.36743 3.09699 7.33351 3.0116 7.3335ZM3.0116 10.0002H2.32215C2.28043 10.0002 2.2407 10.0084 2.2041 10.0228C2.32344 10.0699 2.40801 10.186 2.40801 10.3221V11.0116C2.40801 11.1477 2.32344 11.2638 2.2041 11.3109C2.2407 11.3253 2.28043 11.3335 2.32215 11.3335H3.0116C3.09698 11.3335 3.17887 11.2996 3.23924 11.2393C3.29962 11.1789 3.33354 11.097 3.33355 11.0116V10.3221C3.33354 10.2367 3.29962 10.1549 3.23925 10.0945C3.17887 10.0341 3.09699 10.0002 3.0116 10.0002ZM3.0116 12.6669H2.32215C2.28043 12.6669 2.2407 12.6751 2.2041 12.6895C2.32344 12.7366 2.40801 12.8527 2.40801 12.9888V13.6783C2.40801 13.8144 2.32344 13.9304 2.2041 13.9776C2.2407 13.992 2.28043 14.0002 2.32215 14.0002H3.0116C3.09698 14.0002 3.17887 13.9663 3.23924 13.9059C3.29962 13.8456 3.33354 13.7637 3.33355 13.6783V12.9888C3.33354 12.9034 3.29962 12.8215 3.23925 12.7612C3.17887 12.7008 3.09699 12.6669 3.0116 12.6669ZM5.67824 10.0002H4.98879C4.94707 10.0002 4.90734 10.0084 4.87074 10.0228C4.93084 10.0465 4.98242 10.0877 5.01878 10.141C5.05514 10.1944 5.07459 10.2575 5.07461 10.3221V11.0116C5.07461 11.1477 4.99004 11.2638 4.87074 11.3109C4.90734 11.3253 4.94707 11.3335 4.98879 11.3335H5.67824C5.76362 11.3335 5.84551 11.2996 5.90588 11.2393C5.96626 11.1789 6.00018 11.097 6.0002 11.0116V10.3221C6.0002 10.2367 5.96628 10.1549 5.9059 10.0945C5.84552 10.0341 5.76363 10.0002 5.67824 10.0002ZM5.67824 12.6669H4.98879C4.94707 12.6669 4.90734 12.6751 4.87074 12.6895C4.93084 12.7131 4.98242 12.7543 5.01878 12.8077C5.05514 12.8611 5.07459 12.9242 5.07461 12.9888V13.6783C5.07461 13.8144 4.99004 13.9304 4.87074 13.9776C4.90734 13.992 4.94707 14.0002 4.98879 14.0002H5.67824C5.76362 14.0002 5.84551 13.9663 5.90588 13.9059C5.96626 13.8456 6.00018 13.7637 6.0002 13.6783V12.9888C6.0002 12.9465 5.99188 12.9047 5.9757 12.8656C5.95952 12.8265 5.93581 12.791 5.90591 12.7611C5.87601 12.7312 5.84052 12.7075 5.80145 12.6914C5.76239 12.6752 5.72052 12.6669 5.67824 12.6669ZM8.34492 10.0002H7.65547C7.61375 10.0002 7.57402 10.0084 7.53742 10.0228C7.65676 10.0699 7.74133 10.186 7.74133 10.3221V11.0116C7.74133 11.1477 7.65676 11.2638 7.53742 11.3109C7.57402 11.3253 7.61375 11.3335 7.65547 11.3335H8.34492C8.4303 11.3335 8.51219 11.2996 8.57256 11.2393C8.63294 11.1789 8.66686 11.097 8.66687 11.0116V10.3221C8.66686 10.2367 8.63294 10.1549 8.57257 10.0945C8.51219 10.0341 8.43031 10.0002 8.34492 10.0002ZM11.3335 11.3335V10.3221C11.3335 10.2798 11.3252 10.2379 11.309 10.1989C11.2928 10.1598 11.2691 10.1243 11.2392 10.0944C11.2093 10.0646 11.1738 10.0408 11.1348 10.0247C11.0957 10.0085 11.0538 10.0002 11.0116 10.0002H10.3221C10.2804 10.0002 10.2407 10.0084 10.2041 10.0228C10.3234 10.0699 10.408 10.186 10.408 10.3221V11.0116C10.408 11.1477 10.3234 11.2638 10.2041 11.3109C10.2407 11.3253 10.2804 11.3335 10.3221 11.3335H11.3335V11.3335ZM8.34492 12.6669H7.65547C7.61375 12.6669 7.57402 12.6751 7.53742 12.6895C7.65676 12.7366 7.74133 12.8527 7.74133 12.9888V13.6783C7.74133 13.8144 7.65676 13.9304 7.53742 13.9776C7.57402 13.992 7.61375 14.0002 7.65547 14.0002H8.34492C8.4303 14.0002 8.51219 13.9663 8.57256 13.9059C8.63294 13.8456 8.66686 13.7637 8.66687 13.6783V12.9888C8.66687 12.9465 8.65855 12.9047 8.64237 12.8656C8.62619 12.8265 8.60247 12.791 8.57258 12.7612C8.54268 12.7313 8.50719 12.7075 8.46813 12.6914C8.42907 12.6752 8.3872 12.6669 8.34492 12.6669Z" fill="#2A428C"/>
<path d="M17.0742 5.61426V15.3335H18.0004V6.00016L17.0742 5.61426Z" fill="#D3DCFB"/>
<path d="M18.0006 6.00014V2.66678C18.0006 1.93041 17.4037 1.3335 16.6673 1.3335H1.9993C1.26293 1.3335 0.666016 1.93041 0.666016 2.66678V6.00014H18.0006Z" fill="#FF4155"/>
<path d="M4.86691 2.96834H3.99906C3.91902 2.96834 3.84226 2.93654 3.78566 2.87995C3.72906 2.82335 3.69727 2.74658 3.69727 2.66654C3.69727 2.5865 3.72906 2.50974 3.78566 2.45314C3.84226 2.39654 3.91902 2.36475 3.99906 2.36475H4.86691C4.94696 2.36475 5.02372 2.39654 5.08032 2.45314C5.13691 2.50974 5.16871 2.5865 5.16871 2.66654C5.16871 2.74658 5.13691 2.82335 5.08032 2.87995C5.02372 2.93654 4.94696 2.96834 4.86691 2.96834ZM6.99902 2.96834H6.13117C6.05113 2.96834 5.97437 2.93654 5.91777 2.87995C5.86117 2.82335 5.82938 2.74658 5.82938 2.66654C5.82938 2.5865 5.86117 2.50974 5.91777 2.45314C5.97437 2.39654 6.05113 2.36475 6.13117 2.36475H6.99902C7.16574 2.36475 7.30082 2.49986 7.30082 2.66654C7.30082 2.83322 7.16574 2.96834 6.99902 2.96834ZM12.534 2.96834H11.6661C11.5861 2.96834 11.5093 2.93654 11.4527 2.87995C11.3961 2.82335 11.3643 2.74658 11.3643 2.66654C11.3643 2.5865 11.3961 2.50974 11.4527 2.45314C11.5093 2.39654 11.5861 2.36475 11.6661 2.36475H12.534C12.7007 2.36475 12.8358 2.49986 12.8358 2.66654C12.8358 2.83322 12.7007 2.96834 12.534 2.96834ZM14.6662 2.96834H13.7983C13.7182 2.96834 13.6415 2.93654 13.5849 2.87995C13.5283 2.82335 13.4965 2.74658 13.4965 2.66654C13.4965 2.5865 13.5283 2.50974 13.5849 2.45314C13.6415 2.39654 13.7182 2.36475 13.7983 2.36475H14.6662C14.7462 2.36475 14.823 2.39654 14.8796 2.45314C14.9362 2.50974 14.968 2.5865 14.968 2.66654C14.968 2.74658 14.9362 2.82335 14.8796 2.87995C14.823 2.93654 14.7462 2.96834 14.6662 2.96834Z" fill="#E80054"/>
<path d="M6.33266 2.5C6.33266 2.96023 5.95957 3.33332 5.49934 3.33332C5.0391 3.33332 4.66602 2.96023 4.66602 2.5V0.83332C4.66598 0.373086 5.03906 0 5.4993 0C5.95953 0 6.33262 0.373086 6.33262 0.83332V2.5H6.33266ZM13.9998 2.5C13.9998 2.96023 13.6267 3.33332 13.1664 3.33332C12.7062 3.33332 12.3331 2.96023 12.3331 2.5V0.83332C12.3331 0.373086 12.7062 0 13.1664 0C13.6266 0 13.9997 0.373086 13.9997 0.83332V2.5H13.9998Z" fill="#EBF5FC"/>
<path d="M13.1666 0C12.9955 0 12.8366 0.0517188 12.7042 0.140156C12.9279 0.289609 13.0752 0.54418 13.0752 0.833359V2.5C13.0752 2.78914 12.9279 3.04375 12.7042 3.1932C12.841 3.28477 13.002 3.33355 13.1666 3.33336C13.6268 3.33336 13.9999 2.96027 13.9999 2.50004V0.83332C13.9999 0.373086 13.6268 0 13.1666 0ZM5.49945 0C5.32836 0 5.16945 0.0517188 5.03711 0.140156C5.26074 0.289609 5.40813 0.54418 5.40813 0.833359V2.5C5.40813 2.78914 5.26074 3.04375 5.03711 3.1932C5.1739 3.28477 5.33485 3.33355 5.49945 3.33336C5.95969 3.33336 6.33277 2.96027 6.33277 2.50004V0.83332C6.33281 0.373086 5.95973 0 5.49945 0Z" fill="#D3DCFB"/>
<path d="M16.6671 1.3335H15.7412C16.4776 1.3335 17.0745 1.93041 17.0745 2.66678V6.00018H18.0004V2.66682C18.0004 1.93045 17.4034 1.3335 16.6671 1.3335Z" fill="#E80054"/>
<path d="M0.666016 4.36475H18.0007V4.96838H0.666016V4.36475Z" fill="#E80054"/>
<path d="M14.333 20C17.0944 20 19.333 17.7614 19.333 15C19.333 12.2386 17.0944 10 14.333 10C11.5716 10 9.33301 12.2386 9.33301 15C9.33301 17.7614 11.5716 20 14.333 20Z" fill="#4FABF7"/>
<path d="M14.3337 18.6669C16.3587 18.6669 18.0004 17.0252 18.0004 15.0002C18.0004 12.9751 16.3587 11.3335 14.3337 11.3335C12.3086 11.3335 10.667 12.9751 10.667 15.0002C10.667 17.0252 12.3086 18.6669 14.3337 18.6669Z" fill="#EBF5FC"/>
<path d="M14.333 14.635C14.2934 14.635 14.2542 14.6272 14.2175 14.6121C14.1809 14.5969 14.1477 14.5747 14.1196 14.5466C14.0916 14.5186 14.0694 14.4853 14.0542 14.4487C14.039 14.4121 14.0312 14.3729 14.0313 14.3332V12.6665C14.0313 12.5865 14.063 12.5097 14.1196 12.4531C14.1762 12.3965 14.253 12.3647 14.333 12.3647C14.4131 12.3647 14.4899 12.3965 14.5464 12.4531C14.603 12.5097 14.6348 12.5865 14.6348 12.6665V14.3332C14.6348 14.4133 14.603 14.49 14.5464 14.5466C14.4899 14.6032 14.4131 14.635 14.333 14.635ZM15.9997 15.3017H14.9997C14.9196 15.3017 14.8429 15.2699 14.7863 15.2133C14.7297 15.1567 14.6979 15.0799 14.6979 14.9999C14.6979 14.9199 14.7297 14.8431 14.7863 14.7865C14.8429 14.7299 14.9196 14.6981 14.9997 14.6981H15.9997C16.0798 14.6981 16.1565 14.7299 16.2131 14.7865C16.2697 14.8431 16.3015 14.9199 16.3015 14.9999C16.3015 15.0799 16.2697 15.1567 16.2131 15.2133C16.1565 15.2699 16.0798 15.3017 15.9997 15.3017Z" fill="#3C58A0"/>
<path d="M14.3329 10C14.1769 10 14.0226 10.0075 13.8702 10.0215C16.4146 10.2551 18.4073 12.3946 18.4073 15C18.4073 17.6054 16.4145 19.7449 13.8701 19.9785C14.0225 19.9925 14.1768 20 14.3329 20C17.0943 20 19.3329 17.7614 19.3329 15C19.3329 12.2386 17.0943 10 14.3329 10Z" fill="#1886EA"/>
<path d="M14.3336 11.3335C14.1769 11.3335 14.0226 11.3434 13.8711 11.3624C15.6778 11.5898 17.0753 13.1318 17.0753 15.0002C17.0753 16.8686 15.6778 18.4105 13.8711 18.6379C14.0226 18.657 14.1769 18.6669 14.3336 18.6669C16.3586 18.6669 18.0002 17.0252 18.0002 15.0002C18.0002 12.9751 16.3586 11.3335 14.3336 11.3335Z" fill="#D3DCFB"/>
<path d="M14.3337 15.6669C14.7019 15.6669 15.0004 15.3684 15.0004 15.0002C15.0004 14.632 14.7019 14.3335 14.3337 14.3335C13.9655 14.3335 13.667 14.632 13.667 15.0002C13.667 15.3684 13.9655 15.6669 14.3337 15.6669Z" fill="#FFDD40"/>
</g>
<defs>
<clipPath id="clip0_23208_2728">
<rect width="20" height="20" fill="white"/>
</clipPath>
</defs>
</svg>
