<svg width="20" height="20" viewBox="0 0 20 20" fill="none" xmlns="http://www.w3.org/2000/svg">
<g clip-path="url(#clip0_23122_847)">
<path d="M2.71078 4.21387C1.28445 5.88609 0.423828 8.05465 0.423828 10.4243C0.423828 15.713 4.71113 20.0002 9.9998 20.0002C10.1743 20.0002 10.3479 19.9957 10.5202 19.9861L12.6498 17.8565V13.453L9.0493 11.847V5.45051L2.71078 4.21387Z" fill="#5877D1"/>
<path d="M18.6276 14.5836C19.2353 13.3259 19.5759 11.9145 19.5759 10.4242C19.5759 8.07953 18.7327 5.93133 17.3334 4.2666L9.0498 5.45051V11.847L12.6503 13.453L18.6276 14.5836Z" fill="#5877D1"/>
<path d="M2.96152 11.2649C2.96152 8.78988 3.8059 6.51223 5.22207 4.70383L2.71074 4.21387C1.28445 5.88609 0.423828 8.05465 0.423828 10.4243C0.423828 14.5908 3.08508 18.1352 6.80023 19.452C4.45473 17.4983 2.96152 14.5561 2.96152 11.2649Z" fill="#385AC4"/>
<path d="M18.6273 14.5835C17.1507 17.6417 14.0958 19.7945 10.5205 19.986L10.2717 19.3821C10.1121 18.9949 10.242 18.5499 10.5811 18.308C10.698 18.225 10.7932 18.1153 10.8589 17.988C10.9246 17.8606 10.9588 17.7194 10.9587 17.5761C10.9387 17.4026 11.0445 17.0068 10.7157 16.6561L10.2468 16.156C9.95891 15.8491 9.92277 15.3831 10.16 15.0354L10.2858 14.851C10.6227 14.3567 10.3917 13.6776 9.82395 13.4911L8.46242 13.0442C8.33758 13.0033 8.23217 12.9178 8.16629 12.8041L7.23258 11.198C7.02945 10.8478 6.52605 10.8412 6.3134 11.1859L6.08992 11.5481C6.04198 11.6259 5.97495 11.6901 5.89521 11.7346C5.81546 11.7792 5.72565 11.8026 5.6343 11.8027C5.28238 11.8027 5.02703 11.4704 5.11512 11.1315L5.59859 9.28068C5.61757 9.20775 5.65172 9.13964 5.69882 9.08081C5.74592 9.02198 5.8049 8.97375 5.87191 8.93928L6.85715 8.43213C7.07922 8.3183 7.18707 8.0699 7.13504 7.83943C7.09035 7.63824 6.98676 7.4549 6.83748 7.3128C6.6882 7.1707 6.49999 7.07627 6.29684 7.04154C5.79387 6.93654 5.47172 6.95912 5.06863 6.71424L3.63887 5.84654C3.28534 5.63187 3.0251 5.29249 2.90949 4.89537L2.71094 4.21377V4.21334C4.46746 2.154 7.08086 0.848145 10 0.848145C12.9436 0.848145 15.577 2.17646 17.3331 4.2665L16.9439 4.9585C16.8688 5.09198 16.7621 5.20498 16.6331 5.28755C16.5041 5.37012 16.3568 5.41972 16.2042 5.43201C16.0485 5.44448 15.8983 5.4958 15.7676 5.58128C15.6368 5.66676 15.5296 5.78367 15.4557 5.92131L15.0993 6.58545C15.0141 6.7443 14.8846 6.87509 14.7267 6.96206C14.5688 7.04902 14.3891 7.08844 14.2092 7.07557C13.9867 7.06068 13.9448 7.05354 13.8387 7.05354C13.5985 7.05353 13.3608 7.10344 13.1409 7.20011C12.921 7.29678 12.7235 7.43809 12.5611 7.6151C11.9104 8.32549 12.2232 9.07947 11.6876 9.79115L10.8752 10.8752C10.6862 11.1278 10.7402 11.4862 10.9957 11.6715L11.6997 12.1819C11.7672 12.2308 11.8447 12.2641 11.9267 12.2796C12.0086 12.295 12.0929 12.2922 12.1736 12.2712C13.1355 12.0314 13.1976 11.9801 13.4329 11.9801C13.5778 11.98 13.7213 12.0088 13.8549 12.0648C13.9885 12.1208 14.1097 12.2028 14.2113 12.3061C14.8015 12.9059 15.4454 12.4339 16.0567 12.7597C16.5979 13.0515 16.6521 13.0636 16.7728 13.1572L18.6273 14.5835Z" fill="#71D5B4"/>
<path d="M7.65035 1.13867C5.69539 1.63184 3.97961 2.72578 2.71094 4.21316V4.21359L2.90949 4.8952C3.0251 5.29232 3.28534 5.63169 3.63887 5.84637L4.23617 6.20887C5.05496 4.69363 6.23086 3.40031 7.65039 2.43965V1.13867H7.65035Z" fill="#31C695"/>
<path d="M7.1815 1.36657e-05C5.97458 -0.00436133 5.03743 1.04236 5.10935 2.24716C5.18275 3.47677 5.99943 4.58388 6.58325 5.22611C6.89954 5.57404 7.44704 5.57509 7.76341 5.2272C8.37521 4.55443 9.2436 3.37044 9.2436 2.06978C9.2436 0.929232 8.32107 0.00415429 7.1815 1.36657e-05ZM14.7706 10.3638C13.5637 10.3594 12.6265 11.4061 12.6984 12.611C12.7718 13.8406 13.5885 14.9477 14.1724 15.5899C14.4886 15.9378 15.0361 15.9389 15.3525 15.591C15.9643 14.9182 16.8327 13.7342 16.8327 12.4336C16.8327 11.293 15.9102 10.3679 14.7706 10.3638Z" fill="#F98797"/>
<path d="M6.73802 2.19951C6.73802 1.36423 7.06485 0.605717 7.59685 0.0432949C7.4602 0.0149766 7.32105 0.000476522 7.1815 1.36652e-05C5.97458 -0.00436133 5.03743 1.0424 5.10935 2.24716C5.18275 3.47677 5.99943 4.58388 6.58325 5.22611C6.89954 5.57404 7.44704 5.57509 7.76341 5.2272C7.88816 5.09009 8.00801 4.94861 8.12275 4.80302C7.28732 4.23896 6.73802 3.28341 6.73802 2.19951ZM14.3271 12.5633C14.3271 11.728 14.654 10.9695 15.1859 10.4071C15.0493 10.3788 14.9101 10.3643 14.7706 10.3638C13.5637 10.3594 12.6265 11.4062 12.6984 12.611C12.7718 13.8406 13.5885 14.9477 14.1724 15.5899C14.4886 15.9378 15.0361 15.9389 15.3525 15.591C15.4773 15.4539 15.5971 15.3124 15.7118 15.1668C14.8764 14.6027 14.3271 13.6472 14.3271 12.5633Z" fill="#E35B70"/>
<path d="M7.17375 2.82748C7.59223 2.82748 7.93148 2.48823 7.93148 2.06975C7.93148 1.65126 7.59223 1.31201 7.17375 1.31201C6.75526 1.31201 6.41602 1.65126 6.41602 2.06975C6.41602 2.48823 6.75526 2.82748 7.17375 2.82748Z" fill="#E8E7F9"/>
<path d="M14.7626 13.1912C15.1811 13.1912 15.5204 12.852 15.5204 12.4335C15.5204 12.015 15.1811 11.6758 14.7626 11.6758C14.3441 11.6758 14.0049 12.015 14.0049 12.4335C14.0049 12.852 14.3441 13.1912 14.7626 13.1912Z" fill="#E8E7F9"/>
</g>
<defs>
<clipPath id="clip0_23122_847">
<rect width="20" height="20" fill="white"/>
</clipPath>
</defs>
</svg>
