<svg width="52" height="52" viewBox="0 0 52 52" fill="none" xmlns="http://www.w3.org/2000/svg">
<path fill-rule="evenodd" clip-rule="evenodd" d="M34.2923 1.46436L47.6338 7.18313V17.9713C47.6338 25.4786 42.17 31.9657 34.7784 33.2543L34.2923 33.3393L33.806 33.2543C26.4145 31.9657 20.9507 25.4786 20.9507 17.9713V7.18313L34.2923 1.46436Z" fill="#7FB036"/>
<path fill-rule="evenodd" clip-rule="evenodd" d="M33.8091 1.67134L34.292 1.46436L47.6335 7.18313V17.9713C47.6335 25.4786 42.1698 31.9657 34.7781 33.2543L34.292 33.3393L33.8091 33.2549L33.8124 33.2543C41.2041 31.9657 46.6679 25.4786 46.6679 17.9713V7.18313L33.8091 1.67134Z" fill="#7FB036"/>
<path fill-rule="evenodd" clip-rule="evenodd" d="M34.292 5.32349L24.4966 9.51907V17.9714C24.4966 23.7141 28.6581 28.695 34.292 29.7388C39.9292 28.695 44.0907 23.7141 44.0907 17.9714V9.51907L34.292 5.32349Z" fill="#ECEFF1"/>
<path fill-rule="evenodd" clip-rule="evenodd" d="M34.7748 5.53026L25.4623 9.51907V17.9714C25.4623 23.5488 29.3877 28.4077 34.7749 29.639C34.6147 29.6756 34.4536 29.7089 34.292 29.7388C28.6581 28.695 24.4966 23.7141 24.4966 17.9714V9.51907L34.292 5.32349L34.7748 5.53026Z" fill="#D1D1D6"/>
<path fill-rule="evenodd" clip-rule="evenodd" d="M12.8469 39.8281L20.0951 35.6295C21.4561 34.8408 22.8389 34.2815 24.3354 34.7666C26.0021 35.3083 28.7241 36.4683 31.5007 36.9686C32.5317 37.3028 33.1741 38.3339 32.8944 39.3803C32.6126 40.4267 31.73 40.9663 30.4805 40.7741L31.4526 40.9292C32.5645 41.1083 33.5847 40.9554 34.559 40.3874L41.5277 36.3285C46.9454 33.174 47.7406 38.0281 45.9405 39.1378L33.2919 46.9257C32.1298 47.64 30.8562 47.8083 29.5367 47.4544L20.3638 44.9968L16.9648 46.9585C16.3115 47.3343 15.4727 47.1092 15.0947 46.4561L12.3465 41.6981C11.9708 41.0449 12.1958 40.2061 12.8469 39.8281Z" fill="#F6DCCD"/>
<path fill-rule="evenodd" clip-rule="evenodd" d="M32.7284 39.8151C32.3417 40.573 31.5422 40.9378 30.4805 40.7741C28.9797 40.3764 27.4767 39.9701 25.9759 39.5682C25.574 39.4589 25.3358 39.0461 25.4429 38.6441C25.55 38.2422 25.965 38.004 26.367 38.1111L32.7284 39.8151ZM12.8469 39.8281L20.0951 35.6295C21.4561 34.8408 22.8389 34.2815 24.3354 34.7666C25.2266 35.0549 26.4216 35.5224 27.7629 35.9702L13.7207 44.0793L12.3465 41.6981C11.9708 41.0449 12.1958 40.2061 12.8469 39.8281Z" fill="#F1CBBC"/>
<path fill-rule="evenodd" clip-rule="evenodd" d="M13.6878 37.7397L19.4375 47.8979C19.7149 48.3893 19.5402 49.0185 19.0509 49.296L17.0935 50.4035C16.6041 50.6809 15.975 50.5061 15.6953 50.0147L9.9478 39.8565C9.66822 39.365 9.84298 38.7359 10.3345 38.4585L12.2896 37.3509C12.7812 37.0734 13.4104 37.2482 13.6878 37.7397Z" fill="#D1D1D6"/>
<path fill-rule="evenodd" clip-rule="evenodd" d="M16.7132 44.7194L17.729 46.5173L18.7361 48.2955C19.0136 48.7848 18.841 49.4117 18.3516 49.6914L19.0507 49.296C19.54 49.0186 19.7148 48.3894 19.4373 47.8979L18.4281 46.1131L16.4008 42.5304L14.3714 38.9457L13.6877 37.7398C13.4473 37.3138 12.9427 37.1259 12.4927 37.2635L13.6745 39.352L15.7018 42.9346L16.711 44.7171L16.7132 44.7194Z" fill="#B1B1B5"/>
<path fill-rule="evenodd" clip-rule="evenodd" d="M12.2547 39.0592C11.8746 39.1137 11.6102 39.4699 11.6649 39.85C11.7217 40.2323 12.0756 40.4966 12.4578 40.4397C12.8379 40.3852 13.1023 40.0313 13.0477 39.6489C12.9909 39.2667 12.637 39.0024 12.2547 39.0592Z" fill="#685E68"/>
<path d="M28.5062 18.3927C27.9419 17.8319 27.9419 16.9207 28.5062 16.3599C29.0672 15.799 29.9748 15.799 30.5391 16.3599L32.7385 18.5593L38.0518 13.195C38.6093 12.6341 39.5169 12.6307 40.0778 13.1883C40.6422 13.7492 40.6422 14.6568 40.0847 15.2177C37.3413 17.9882 36.5153 18.8517 33.7549 21.6086C33.194 22.1728 32.283 22.1728 31.7221 21.6086L28.5062 18.3927Z" fill="#8AC9FE"/>
<path fill-rule="evenodd" clip-rule="evenodd" d="M13.3955 19.4719C14.0604 19.6301 14.6957 19.8934 15.2774 20.2519L16.5003 19.7094L17.941 21.1501L17.3986 22.373C17.7571 22.9548 18.0204 23.5901 18.1785 24.2549L19.4263 24.7351V26.7736L18.1785 27.2539C18.0202 27.9184 17.757 28.5533 17.3986 29.1348L17.941 30.3578L16.5003 31.7994L15.2774 31.256C14.6957 31.6148 14.0604 31.8784 13.3955 32.0369L12.9153 33.2837H10.8769L10.3966 32.0359C9.73209 31.8776 9.09712 31.6144 8.51559 31.256L7.29267 31.7994L5.85104 30.3578L6.3945 29.1358C6.03597 28.5539 5.77237 27.9186 5.61358 27.2539L4.3667 26.7736V24.7351L5.61358 24.2549C5.77207 23.59 6.03569 22.9547 6.3945 22.373L5.85104 21.1501L7.29267 19.7094L8.51467 20.2519C9.09661 19.8937 9.73185 19.6304 10.3966 19.4719L10.8769 18.2241H12.9153L13.3955 19.4719Z" fill="#FFE177"/>
<path fill-rule="evenodd" clip-rule="evenodd" d="M16.0894 19.8917L16.5003 19.7094L17.941 21.1501L17.3986 22.373C17.7571 22.9548 18.0204 23.5901 18.1785 24.2549L19.4263 24.7351V26.7736L18.1785 27.2539C18.0202 27.9184 17.757 28.5533 17.3986 29.1348L17.941 30.3578L16.5003 31.7994L16.0894 31.6171L17.3487 30.3578L16.8054 29.1348C17.1637 28.5533 17.427 27.9184 17.5853 27.2539L18.8331 26.7736V24.7351L17.5853 24.2549C17.4272 23.5901 17.1639 22.9548 16.8054 22.373L17.3487 21.1501L16.0894 19.8917ZM7.11035 19.8917L7.29266 19.7094L8.51466 20.2519C8.4284 20.2999 8.34306 20.3497 8.25945 20.4022L7.11035 19.8917ZM13.3955 19.4719C14.0603 19.6301 14.6956 19.8934 15.2774 20.2519L14.9403 20.4022C14.3587 20.0438 13.4676 19.6303 12.8023 19.4719L12.3221 18.2241H12.9153L13.3955 19.4719ZM8.51557 31.256L7.29266 31.7994L7.11035 31.6171L8.25945 31.1066C8.34306 31.1582 8.4284 31.208 8.51557 31.256ZM15.2774 31.256C14.6957 31.6148 14.0604 31.8784 13.3955 32.0369L12.9153 33.2837H12.3221L12.8023 32.0369C13.4676 31.8785 14.3587 31.465 14.9412 31.1066L15.2774 31.256Z" fill="#FFD064"/>
<path fill-rule="evenodd" clip-rule="evenodd" d="M11.8963 22.2007C13.859 22.2007 15.45 23.7917 15.45 25.7544C15.45 27.7165 13.859 29.3075 11.8963 29.3075C9.93426 29.3075 8.34326 27.7165 8.34326 25.7544C8.34326 23.7917 9.93426 22.2007 11.8963 22.2007Z" fill="#ECEFF1"/>
<path fill-rule="evenodd" clip-rule="evenodd" d="M11.8963 22.2007C11.977 22.2007 12.0572 22.2035 12.1373 22.2092C10.2872 22.3327 8.82401 23.8724 8.82401 25.7544C8.82401 27.6356 10.2872 29.1753 12.1373 29.2995C12.0572 29.3045 11.977 29.3075 11.8963 29.3075C9.93426 29.3075 8.34326 27.7165 8.34326 25.7544C8.34326 23.7917 9.93426 22.2007 11.8963 22.2007Z" fill="#D1D1D6"/>
</svg>
