<svg width="45" height="52" viewBox="0 0 45 52" fill="none" xmlns="http://www.w3.org/2000/svg">
<path fill-rule="evenodd" clip-rule="evenodd" d="M17.4249 2.73738C13.1081 2.85611 12.1733 5.83148 12.1733 9.52846V13.2343C13.7839 13.2343 15.9978 15.5363 17.7691 12.1571C21.949 15.3017 28.735 13.0115 32.0485 13.2343C35.8246 11.9396 38.2443 4.43439 33.6792 0.0567393C33.6063 -0.0131357 33.493 -0.0184169 33.4111 0.0405909C27.2682 4.46587 20.7163 -2.07485 17.4249 2.73738Z" fill="#554E56"/>
<path fill-rule="evenodd" clip-rule="evenodd" d="M22.111 34.3558L26.8744 30.8637V22.3445C26.157 22.8315 25.3918 23.2323 24.5999 23.5263C23.6979 23.8589 22.906 24.0251 22.111 24.0251C21.3161 24.0251 20.5213 23.8589 19.6221 23.5263C18.8303 23.2322 18.0651 22.8314 17.3477 22.3445V30.8637L22.111 34.3558Z" fill="#FFBD86"/>
<path fill-rule="evenodd" clip-rule="evenodd" d="M19.6224 27.7876C20.5215 28.1202 21.3164 28.2864 22.1113 28.2864C22.7305 28.2864 23.3528 28.2033 24.0166 27.9836C24.5435 27.8084 24.4959 28.3013 24.4959 28.8239V32.61L26.8746 30.8639V22.3446C26.1571 22.8287 25.392 23.2325 24.6001 23.5264C23.698 23.859 22.9061 24.0253 22.1112 24.0253C21.3163 24.0253 20.5214 23.859 19.6223 23.5264C18.8304 23.2324 18.0653 22.8315 17.3478 22.3446V26.6058C18.0654 27.0897 18.8305 27.4935 19.6224 27.7876ZM11.6706 13.2344C7.49067 13.2344 8.29159 19.1287 12.6827 18.8169C13.9867 16.5809 14.0016 14.826 12.1736 13.2344H11.6706Z" fill="#F6A96C"/>
<path fill-rule="evenodd" clip-rule="evenodd" d="M17.1035 10.0212C15.4068 13.0108 13.7163 13.2343 12.1733 13.2343V16.2423C12.1733 17.0678 12.3549 17.9408 12.6825 18.8168C13.4952 20.9815 15.216 23.1522 17.3476 24.5953C18.0651 25.0793 18.8303 25.4831 19.6221 25.777C20.5213 26.1097 21.3161 26.2759 22.111 26.2759C22.906 26.2759 23.6978 26.1097 24.5999 25.777C25.3918 25.483 26.157 25.0792 26.8744 24.5953C29.006 23.1522 30.7238 20.9815 31.5396 18.8168C31.867 17.9408 32.0487 17.0678 32.0487 16.2423V13.2343C28.8165 13.017 21.8592 12.7687 17.6399 9.83793C17.3205 9.68579 17.1778 9.89003 17.1035 10.0212Z" fill="#FED2A4"/>
<path fill-rule="evenodd" clip-rule="evenodd" d="M32.0486 13.2344C30.6731 14.6924 30.566 16.379 31.5394 18.8169C35.9278 19.1287 36.7315 13.2344 32.5516 13.2344H32.0486Z" fill="#F6A96C"/>
<path fill-rule="evenodd" clip-rule="evenodd" d="M3.86426 37.3341L22.0455 39.5611L40.3548 37.3341C40.0243 35.3089 38.0921 31.2348 35.4038 30.6053L30.5094 29.4622L22.111 32.1079L13.7126 29.4622L8.81817 30.6053C6.12687 31.2348 4.19769 35.3089 3.86426 37.3341Z" fill="#554E56"/>
<path fill-rule="evenodd" clip-rule="evenodd" d="M32.7541 32.2861C34.8172 32.7671 36.4338 35.2763 37.2257 37.3341L37.5233 37.9992L40.3546 37.3341C40.0241 35.3089 38.092 31.2348 35.4036 30.6053L30.5092 29.4622L28.9819 31.4071L32.7541 32.2861Z" fill="#433F43"/>
<path fill-rule="evenodd" clip-rule="evenodd" d="M26.8746 24.5954C29.0062 23.1523 30.7241 20.9816 31.5398 18.8169C31.8672 17.9409 32.0489 17.0679 32.0489 16.2424V13.2344C31.3226 13.1869 30.4056 13.1364 29.3785 13.0532V15.7881C29.3785 16.6136 29.1969 17.4896 28.8664 18.3626C28.0537 20.5303 26.3358 22.6979 24.2012 24.1411C23.4838 24.6252 22.7215 25.029 21.9297 25.3229C21.1378 25.6139 20.4262 25.7802 19.7266 25.8158C20.584 26.1216 21.3491 26.2761 22.1112 26.2761C22.9062 26.2761 23.6981 26.1098 24.6001 25.7772C25.392 25.4833 26.1572 25.0793 26.8746 24.5954Z" fill="#FFBD86"/>
<path fill-rule="evenodd" clip-rule="evenodd" d="M32.0489 13.2343C35.825 11.9395 38.2447 4.43437 33.6796 0.0567232C33.6067 -0.0131518 33.4934 -0.018433 33.4115 0.0406763C32.9186 0.396247 32.4209 0.683161 31.9208 0.908122C35.2016 5.34447 32.8705 11.8564 29.3784 13.0531C30.4055 13.1363 31.3225 13.1868 32.0489 13.2343Z" fill="#433F43"/>
<path d="M26.3117 17.6071C26.2085 17.6071 26.1063 17.5868 26.011 17.5473C25.9157 17.5078 25.829 17.45 25.7561 17.377C25.6831 17.3041 25.6252 17.2174 25.5858 17.1221C25.5463 17.0268 25.526 16.9246 25.526 16.8214V15.9217C25.526 15.4877 25.8777 15.136 26.3117 15.136C26.7456 15.136 27.0974 15.4877 27.0974 15.9217V16.8214C27.0974 17.0298 27.0146 17.2296 26.8672 17.377C26.7199 17.5243 26.52 17.6071 26.3117 17.6071ZM17.9073 17.6071C17.6989 17.6071 17.499 17.5243 17.3517 17.377C17.2044 17.2296 17.1216 17.0298 17.1216 16.8214V15.9217C17.1216 15.4877 17.4733 15.136 17.9073 15.136C18.3412 15.136 18.693 15.4877 18.693 15.9217V16.8214C18.693 17.0298 18.6102 17.2296 18.4628 17.377C18.3155 17.5243 18.1156 17.6071 17.9073 17.6071Z" fill="#433F43"/>
<path d="M22.1098 22.5231C21.5221 22.5231 20.9346 22.3855 20.466 22.1105C20.377 22.0582 20.2992 21.9889 20.237 21.9066C20.1748 21.8243 20.1294 21.7305 20.1034 21.6307C20.0774 21.5308 20.0714 21.4268 20.0856 21.3246C20.0998 21.2224 20.1341 21.124 20.1863 21.0351C20.2386 20.9461 20.3078 20.8683 20.3901 20.8061C20.4725 20.7439 20.5662 20.6985 20.6661 20.6725C20.766 20.6465 20.8699 20.6405 20.9721 20.6547C21.0743 20.669 21.1727 20.7032 21.2617 20.7554C21.7055 21.016 22.5142 21.016 22.9579 20.7554C23.0469 20.7032 23.1453 20.6689 23.2475 20.6547C23.3497 20.6405 23.4537 20.6465 23.5535 20.6725C23.6534 20.6985 23.7471 20.7439 23.8294 20.8061C23.9118 20.8683 23.981 20.9461 24.0332 21.0351C24.0855 21.1241 24.1197 21.2225 24.1339 21.3247C24.1482 21.4269 24.1421 21.5309 24.1161 21.6307C24.0902 21.7306 24.0448 21.8243 23.9826 21.9067C23.9203 21.989 23.8425 22.0582 23.7535 22.1105C23.285 22.3855 22.6975 22.5231 22.1098 22.5231Z" fill="#F6A96C"/>
<path fill-rule="evenodd" clip-rule="evenodd" d="M17.8216 34.412L22.1113 32.1078L17.3479 28.6158L13.7129 29.4621L17.5577 34.3568C17.5882 34.3956 17.6314 34.4224 17.6796 34.4325C17.7279 34.4426 17.7782 34.4353 17.8216 34.412ZM26.6649 34.3567L30.5097 29.462L26.8747 28.6157L22.1113 32.1078L26.401 34.412C26.4444 34.4353 26.4947 34.4426 26.543 34.4325C26.5913 34.4224 26.6344 34.3955 26.6649 34.3567Z" fill="#FAF7F7"/>
<path fill-rule="evenodd" clip-rule="evenodd" d="M28.9821 31.4072L30.5093 29.4623L26.8743 28.616L24.4956 30.359L28.9821 31.4072Z" fill="#DEDBEE"/>
<path fill-rule="evenodd" clip-rule="evenodd" d="M2.62285 52.0002H41.5992C43.0402 52.0002 44.222 50.8213 44.222 49.3812V39.9503C44.222 38.5101 43.0402 37.3342 41.5992 37.3342H2.62285C1.17894 37.3342 0 38.5101 0 39.9503V49.3812C0.000101563 50.8213 1.17904 52.0002 2.62285 52.0002Z" fill="#99E6FC"/>
<path fill-rule="evenodd" clip-rule="evenodd" d="M44.2222 49.3812V39.9503C44.2222 38.5101 43.0403 37.3342 41.5994 37.3342H39.0718C40.5127 37.3342 41.6946 38.5101 41.6946 39.9503V49.3812C41.6946 50.8213 40.5127 52.0002 39.0718 52.0002H41.5994C43.0403 52.0002 44.2222 50.8213 44.2222 49.3812Z" fill="#62DBFB"/>
<path d="M40.3639 42.5709H37.2022C36.7682 42.5709 36.4165 42.2192 36.4165 41.7852C36.4165 41.3512 36.7682 40.9995 37.2022 40.9995H40.3639C40.7979 40.9995 41.1496 41.3512 41.1496 41.7852C41.1496 42.2192 40.7979 42.5709 40.3639 42.5709Z" fill="#433F43"/>
<path d="M38.7768 48.281C38.6736 48.281 38.5714 48.2607 38.4761 48.2212C38.3808 48.1817 38.2942 48.1238 38.2212 48.0509C38.1482 47.9779 38.0904 47.8913 38.0509 47.796C38.0114 47.7006 37.9911 47.5985 37.9911 47.4953V41.9692C37.9911 41.5352 38.3428 41.1835 38.7768 41.1835C39.2108 41.1835 39.5625 41.5352 39.5625 41.9692V47.4953C39.5625 47.5985 39.5422 47.7006 39.5027 47.796C39.4632 47.8913 39.4054 47.9779 39.3324 48.0509C39.2594 48.1238 39.1728 48.1817 39.0775 48.2212C38.9822 48.2607 38.88 48.281 38.7768 48.281ZM24.7041 48.281H22.3135C22.1051 48.281 21.9053 48.1982 21.758 48.0509C21.6106 47.9035 21.5278 47.7037 21.5278 47.4953V41.8387C21.5278 41.7355 21.5481 41.6333 21.5876 41.538C21.6271 41.4427 21.685 41.356 21.7579 41.2831C21.8309 41.2101 21.9175 41.1522 22.0128 41.1128C22.1082 41.0733 22.2103 41.053 22.3135 41.053H24.7041C25.1381 41.053 25.4898 41.4047 25.4898 41.8387C25.4898 42.2726 25.1381 42.6244 24.7041 42.6244H23.0991V46.7098H24.7041C24.9124 46.7098 25.1123 46.7926 25.2596 46.9399C25.4069 47.0872 25.4897 47.287 25.4897 47.4954C25.4897 47.7037 25.4069 47.9036 25.2596 48.0509C25.1123 48.1982 24.9124 48.281 24.7041 48.281Z" fill="#433F43"/>
<path d="M24.5285 45.4514H22.3136C22.2104 45.4514 22.1082 45.4311 22.0129 45.3916C21.9176 45.3521 21.831 45.2943 21.758 45.2213C21.685 45.1483 21.6272 45.0617 21.5877 44.9664C21.5482 44.8711 21.5279 44.7689 21.5279 44.6657C21.5279 44.5626 21.5482 44.4604 21.5877 44.3651C21.6272 44.2697 21.685 44.1831 21.758 44.1102C21.831 44.0372 21.9176 43.9793 22.0129 43.9399C22.1082 43.9004 22.2104 43.8801 22.3136 43.8801H24.5285C24.9625 43.8801 25.3142 44.2318 25.3142 44.6657C25.3142 45.0997 24.9625 45.4514 24.5285 45.4514ZM13.0272 48.281C12.383 48.281 12.342 48.2731 12.2801 48.2615C12.1004 48.2274 11.9382 48.1316 11.8215 47.9907C11.7048 47.8498 11.641 47.6725 11.641 47.4896V41.7854C11.641 41.5771 11.7238 41.3772 11.8711 41.2299C12.0184 41.0825 12.2183 40.9997 12.4267 40.9997C12.635 40.9997 12.8349 41.0825 12.9822 41.2299C13.1296 41.3772 13.2123 41.5771 13.2123 41.7854V46.709C13.5695 46.7084 14.0094 46.7065 14.4254 46.704C14.8622 46.6973 15.2132 47.0509 15.2159 47.4848C15.2165 47.588 15.1968 47.6903 15.1579 47.7858C15.119 47.8814 15.0617 47.9684 14.9892 48.0418C14.9167 48.1152 14.8304 48.1736 14.7354 48.2136C14.6403 48.2537 14.5382 48.2746 14.4351 48.2753C13.782 48.2792 13.3354 48.281 13.0272 48.281ZM18.3212 48.3079C18.1129 48.3079 17.913 48.2251 17.7657 48.0778C17.6183 47.9304 17.5356 47.7306 17.5356 47.5222V41.812C17.5356 41.6037 17.6183 41.4038 17.7657 41.2565C17.913 41.1091 18.1129 41.0264 18.3212 41.0264C18.5296 41.0264 18.7295 41.1091 18.8768 41.2565C19.0242 41.4038 19.1069 41.6037 19.1069 41.812V47.5222C19.1069 47.6254 19.0866 47.7275 19.0472 47.8229C19.0077 47.9182 18.9498 48.0048 18.8768 48.0778C18.8039 48.1507 18.7173 48.2086 18.6219 48.2481C18.5266 48.2876 18.4244 48.3079 18.3212 48.3079ZM6.71946 48.2812C4.70862 48.2812 3.07275 46.6472 3.07275 44.6389C3.07275 42.6323 4.70862 40.9997 6.71946 40.9997C7.44498 40.999 8.1542 41.215 8.75609 41.6201C8.92476 41.738 9.04042 41.9175 9.0782 42.1198C9.11598 42.3221 9.07286 42.5312 8.95811 42.7021C8.84336 42.873 8.66615 42.992 8.46457 43.0336C8.26299 43.0752 8.05313 43.036 7.88011 42.9246C7.53709 42.6937 7.13292 42.5706 6.71946 42.571C5.57505 42.571 4.64403 43.4987 4.64403 44.6389C4.64403 45.7809 5.57505 46.7099 6.71946 46.7099C7.14023 46.7099 7.49204 46.5863 7.76504 46.3424C7.82336 46.29 7.87816 46.2339 7.92907 46.1742C8.06585 46.0185 8.25862 45.9231 8.46541 45.9089C8.67219 45.8946 8.87623 45.9627 9.03307 46.0982C9.18991 46.2337 9.28685 46.4257 9.30277 46.6324C9.31869 46.839 9.2523 47.0436 9.11806 47.2016C9.02268 47.3127 8.92008 47.4174 8.81093 47.5151C8.25011 48.0161 7.52657 48.2812 6.71946 48.2812ZM28.8782 48.498C28.775 48.498 28.6728 48.4777 28.5775 48.4382C28.4821 48.3987 28.3955 48.3409 28.3226 48.2679C28.2496 48.1949 28.1917 48.1083 28.1523 48.013C28.1128 47.9177 28.0925 47.8155 28.0925 47.7123V41.631C28.0925 41.4635 28.146 41.3005 28.2452 41.1656C28.3444 41.0308 28.4841 40.9311 28.644 40.8812C28.8038 40.8313 28.9753 40.8337 29.1337 40.8882C29.292 40.9426 29.4288 41.0462 29.5241 41.1839L32.3706 45.2969V41.6221C32.3706 41.1881 32.7223 40.8364 33.1563 40.8364C33.5903 40.8364 33.942 41.1881 33.942 41.6221V47.5075C33.942 47.9304 33.7002 48.2778 33.3261 48.3927C32.9595 48.505 32.5755 48.3612 32.3481 48.0255L29.6638 44.1469V47.7124C29.6638 47.9208 29.581 48.1206 29.4337 48.2679C29.2863 48.4152 29.0865 48.498 28.8782 48.498Z" fill="#433F43"/>
</svg>
