<svg width="17" height="20" viewBox="0 0 17 20" fill="none" xmlns="http://www.w3.org/2000/svg">
<path d="M15.585 8.125C15.585 12.2672 12.2271 15.625 8.08496 15.625C3.94277 15.625 0.584961 12.2672 0.584961 8.125C0.584961 3.98281 3.94277 0.585938 8.08496 0.585938C12.2271 0.585938 15.585 3.98281 15.585 8.125Z" fill="#F9F9F9"/>
<path d="M15.585 8.125C15.585 12.2672 12.2271 15.625 8.08496 15.625V0.585938C12.2271 0.585938 15.585 3.98281 15.585 8.125Z" fill="#E2DFF4"/>
<path d="M8.0853 0C3.62998 0 -0.101187 3.66938 0.00209408 8.33828C0.00209408 8.34062 0.00248464 8.34258 0.00248464 8.34492C0.0638128 10.6366 1.09252 12.7061 2.66811 14.1281C4.60639 15.8784 6.22768 17.731 7.60092 19.7437C7.83315 20.085 8.33737 20.0851 8.56967 19.7437C9.94245 17.7317 11.5636 15.8789 13.5025 14.1281C15.0762 12.7078 16.1067 10.6398 16.1681 8.34492C16.1681 8.34258 16.1685 8.34062 16.1685 8.33828C16.2718 3.66652 12.538 0 8.0853 0ZM14.997 8.30742C14.997 8.30937 14.9966 8.31133 14.9966 8.31328C14.896 12.0179 11.8557 15.0391 8.0853 15.0391C4.30889 15.0391 1.27444 12.013 1.17397 8.31328C1.17397 8.31133 1.17358 8.30937 1.17358 8.30742C1.07284 4.40828 4.19581 1.17188 8.0853 1.17188C11.9694 1.17188 15.0979 4.4027 14.997 8.30742Z" fill="#FF405C"/>
<path d="M16.1709 8.125C16.1709 10.4692 15.1556 12.6358 13.5021 14.1281C11.5639 15.8784 9.94258 17.731 8.56934 19.7437C8.51557 19.8227 8.44334 19.8873 8.35893 19.9319C8.27451 19.9766 8.18046 20 8.08496 20V15.0391C11.9274 15.0391 14.999 11.9067 14.999 8.125C14.999 4.29102 11.8975 1.17188 8.08496 1.17188V0C12.5436 0 16.1709 3.64492 16.1709 8.125ZM5.89746 6.52344C5.57387 6.52344 5.31152 6.26109 5.31152 5.9375V3.75C5.31152 3.42641 5.57387 3.16406 5.89746 3.16406C6.22105 3.16406 6.4834 3.42641 6.4834 3.75V5.9375C6.4834 6.26109 6.22105 6.52344 5.89746 6.52344Z" fill="#B10042"/>
<path d="M8.08496 3.75L4.06152 7.77344V12.1875C4.06152 12.5109 4.32402 12.7734 4.64746 12.7734H6.24902C6.24902 12.7734 6.83496 12.5 8.08496 12.5C9.33496 12.5 9.9209 12.7734 9.9209 12.7734H11.5225C11.8459 12.7734 12.1084 12.5109 12.1084 12.1875V7.77344L8.08496 3.75Z" fill="#FFDD54"/>
<path d="M12.1084 7.77344V12.1875C12.1084 12.5109 11.8459 12.7734 11.5225 12.7734H9.9209C9.9209 12.7734 9.33496 12.5 8.08496 12.5V3.75L12.1084 7.77344Z" fill="#FFB454"/>
<path d="M9.33496 9.10156H6.83496C6.51152 9.10156 6.24902 9.36406 6.24902 9.6875V12.7734H9.9209V9.6875C9.9209 9.36406 9.6584 9.10156 9.33496 9.10156Z" fill="#0A789B"/>
<path d="M9.9209 9.6875V12.7734H8.08496V9.10156H9.33496C9.6584 9.10156 9.9209 9.36406 9.9209 9.6875Z" fill="#08475E"/>
<path d="M13.1868 8.85195C13.0724 8.96641 12.9224 9.02344 12.7724 9.02344C12.6224 9.02344 12.4724 8.96641 12.3579 8.85195L8.08486 4.57852L3.81182 8.85195C3.58291 9.08047 3.21182 9.08047 2.98291 8.85195C2.75439 8.62305 2.75439 8.25195 2.98291 8.02305L7.67041 3.33555C7.78486 3.22109 7.93486 3.16406 8.08486 3.16406C8.23486 3.16406 8.38486 3.22109 8.49932 3.33555L13.1868 8.02305C13.4153 8.25195 13.4153 8.62305 13.1868 8.85195Z" fill="#FF405C"/>
<path d="M13.1869 8.85195C13.0725 8.96641 12.9225 9.02344 12.7725 9.02344C12.6225 9.02344 12.4725 8.96641 12.358 8.85195L8.08496 4.57852V3.16406C8.23496 3.16406 8.38496 3.22109 8.49941 3.33555L13.1869 8.02305C13.4154 8.25195 13.4154 8.62305 13.1869 8.85195Z" fill="#B10042"/>
<path d="M9.2959 7.5C9.2959 7.82344 9.0334 8.08594 8.70996 8.08594H7.45996C7.13652 8.08594 6.87402 7.82344 6.87402 7.5C6.87402 7.17656 7.13652 6.91406 7.45996 6.91406H8.70996C9.0334 6.91406 9.2959 7.17656 9.2959 7.5Z" fill="#BCFBFF"/>
<path d="M8.70996 8.08594H8.08496V6.91406H8.70996C9.0334 6.91406 9.2959 7.17656 9.2959 7.5C9.2959 7.82344 9.0334 8.08594 8.70996 8.08594Z" fill="#ACCEFF"/>
</svg>
