<svg width="16" height="20" viewBox="0 0 16 20" fill="none" xmlns="http://www.w3.org/2000/svg">
<path d="M9.88336 5.1275C9.84449 5.08718 9.79789 5.0551 9.74634 5.0332C9.6948 5.01129 9.63937 5 9.58336 5H6.25004C6.19403 5 6.1386 5.01129 6.08705 5.0332C6.03551 5.0551 5.98891 5.08718 5.95004 5.1275C5.34086 5.75832 0 11.3617 0 13.75C0 17.1967 3.55168 20 7.91668 20C12.2817 20 15.8334 17.1967 15.8334 13.75C15.8334 11.3617 10.4925 5.75832 9.88336 5.1275Z" fill="#4CAF50"/>
<path d="M13.2293 0.5575C12.5351 -0.2275 10.7293 0.8025 9.69258 1.5C9.21758 0.825 8.51426 0 7.91676 0C7.31926 0 6.61594 0.825 6.14094 1.5C5.10676 0.80168 3.29758 -0.22832 2.60426 0.5575C2.5092 0.667106 2.4379 0.795235 2.39487 0.933793C2.35184 1.07235 2.33801 1.21833 2.35426 1.3625C2.48844 2.90582 5.63008 5.45668 5.98758 5.74168C6.062 5.8014 6.15466 5.83376 6.25008 5.83336H9.5834C9.67785 5.83343 9.76953 5.80141 9.8434 5.74254C10.2009 5.45672 13.3434 2.90922 13.4767 1.36336C13.4936 1.21922 13.4803 1.07314 13.4377 0.934411C13.3951 0.795679 13.3241 0.667324 13.2293 0.5575Z" fill="#4CAF50"/>
<path d="M11.2503 5.83332H4.58367C4.35355 5.83332 4.16699 5.64676 4.16699 5.41664C4.16699 5.18652 4.35355 5 4.58367 5H11.2504C11.4805 5 11.667 5.18656 11.667 5.41668C11.667 5.6468 11.4804 5.83332 11.2503 5.83332Z" fill="#388E3C"/>
<path d="M7.91684 16.6665C6.92602 16.7644 6.02352 16.0922 5.83352 15.1149C5.81419 14.8847 5.98509 14.6825 6.2152 14.6632C6.44532 14.6438 6.64755 14.8147 6.66688 15.0449C6.70356 15.4799 7.26438 15.8332 7.91688 15.8332C8.5952 15.8332 9.16688 15.4515 9.16688 14.9999C9.16688 14.5932 8.77188 14.3332 7.92438 14.1749L7.83356 14.1582C6.48106 13.9082 5.83356 13.3557 5.83356 12.4999C5.96391 11.4728 6.8863 10.7349 7.91688 10.8332C8.9077 10.7353 9.8102 11.4075 10.0002 12.3849C10.0195 12.615 9.84864 12.8172 9.61852 12.8365C9.3884 12.8559 9.18618 12.685 9.16684 12.4549C9.13184 12.0199 8.57102 11.6665 7.91684 11.6665C7.23852 11.6665 6.66684 12.0482 6.66684 12.4999C6.66684 12.9065 7.06266 13.1665 7.91102 13.3249L8.0027 13.3424C9.3527 13.5924 10.0027 14.144 10.0027 15.0007C9.87188 16.0285 8.94809 16.7663 7.91684 16.6665Z" fill="#FAFAFA"/>
<path d="M7.91668 17.5C7.68656 17.5 7.5 17.3134 7.5 17.0833V10.4167C7.5 10.1866 7.68656 10 7.91668 10C8.1468 10 8.33336 10.1866 8.33336 10.4167V17.0834C8.33336 17.3134 8.1468 17.5 7.91668 17.5Z" fill="#FAFAFA"/>
</svg>
