<svg width="16" height="17" viewBox="0 0 16 17" fill="none" xmlns="http://www.w3.org/2000/svg">
<path d="M11.1667 16.6667H0.833333C0.61232 16.6667 0.400358 16.5789 0.244078 16.4226C0.0877974 16.2663 0 16.0543 0 15.8333V0.833333C0 0.61232 0.0877974 0.400358 0.244078 0.244078C0.400358 0.0877974 0.61232 0 0.833333 0H11.1667C11.3877 0 11.5996 0.0877974 11.7559 0.244078C11.9122 0.400358 12 0.61232 12 0.833333V15.8333C12 16.0543 11.9122 16.2663 11.7559 16.4226C11.5996 16.5789 11.3877 16.6667 11.1667 16.6667Z" fill="#FFBA33"/>
<path d="M12 4.33333H0V0.833333C0 0.61232 0.0877974 0.400358 0.244078 0.244078C0.400358 0.0877974 0.61232 0 0.833333 0H11.1667C11.3877 0 11.5996 0.0877974 11.7559 0.244078C11.9122 0.400358 12 0.61232 12 0.833333V4.33333Z" fill="#E99A00"/>
<path d="M2.33301 6.83317C2.33301 6.65636 2.40325 6.48679 2.52827 6.36177C2.65329 6.23674 2.82286 6.1665 2.99967 6.1665H8.66634C8.84315 6.1665 9.01272 6.23674 9.13775 6.36177C9.26277 6.48679 9.33301 6.65636 9.33301 6.83317C9.33301 7.00998 9.26277 7.17955 9.13775 7.30457C9.01272 7.4296 8.84315 7.49984 8.66634 7.49984H2.99967C2.82286 7.49984 2.65329 7.4296 2.52827 7.30457C2.40325 7.17955 2.33301 7.00998 2.33301 6.83317ZM2.33301 9.6665C2.33301 9.48969 2.40325 9.32012 2.52827 9.1951C2.65329 9.07007 2.82286 8.99984 2.99967 8.99984H6.33301C6.50982 8.99984 6.67939 9.07007 6.80441 9.1951C6.92944 9.32012 6.99967 9.48969 6.99967 9.6665C6.99967 9.84332 6.92944 10.0129 6.80441 10.1379C6.67939 10.2629 6.50982 10.3332 6.33301 10.3332H2.99967C2.82286 10.3332 2.65329 10.2629 2.52827 10.1379C2.40325 10.0129 2.33301 9.84332 2.33301 9.6665ZM2.99967 11.9998C2.82286 11.9998 2.65329 12.0701 2.52827 12.1951C2.40325 12.3201 2.33301 12.4897 2.33301 12.6665C2.33301 12.8433 2.40325 13.0129 2.52827 13.1379C2.65329 13.2629 2.82286 13.3332 2.99967 13.3332H5.66634C5.84315 13.3332 6.01272 13.2629 6.13775 13.1379C6.26277 13.0129 6.33301 12.8433 6.33301 12.6665C6.33301 12.4897 6.26277 12.3201 6.13775 12.1951C6.01272 12.0701 5.84315 11.9998 5.66634 11.9998H2.99967Z" fill="white"/>
<path fill-rule="evenodd" clip-rule="evenodd" d="M14.8481 6.4227C14.6919 6.26647 14.4799 6.17871 14.259 6.17871C14.038 6.17871 13.8261 6.26647 13.6698 6.4227L9.42797 10.6644C9.35936 10.7328 9.30324 10.8128 9.26214 10.9005C9.2519 10.9224 9.24027 10.9435 9.2273 10.9639C9.2028 11.0025 9.18097 11.0439 9.1623 11.0875L8.3923 12.894C8.1568 13.4464 8.71464 14.004 9.26697 13.7687L11.0735 12.9987C11.0978 12.9882 11.1213 12.977 11.1441 12.9647C11.1658 12.953 11.1885 12.9427 11.2118 12.9339C11.3226 12.8921 11.4232 12.8271 11.5068 12.7432L13.6276 10.6224L15.7485 8.50153C15.9047 8.34526 15.9925 8.13334 15.9925 7.91237C15.9925 7.6914 15.9047 7.47947 15.7485 7.3232L14.8481 6.4227Z" fill="#FF7A00"/>
<path d="M13.6698 6.42229C13.8261 6.26602 14.038 6.17822 14.259 6.17822C14.48 6.17822 14.692 6.26602 14.8483 6.42229L15.7486 7.32263C15.9049 7.47891 15.9927 7.69087 15.9927 7.91188C15.9927 8.13289 15.9049 8.34485 15.7486 8.50113L15.6331 8.61663L14.9284 9.3213L12.8496 7.24263L13.6698 6.42229Z" fill="#CE3B3B"/>
</svg>
