<svg width="88" height="88" viewBox="0 0 88 88" fill="none" xmlns="http://www.w3.org/2000/svg">
<path d="M75.1128 12.8874C66.8021 4.57686 55.7528 0 44 0C32.2472 0 21.1979 4.57686 12.8872 12.8874C4.57686 21.1979 0 32.2472 0 44C0 55.7528 4.57686 66.8021 12.8872 75.1126C21.1979 83.4231 32.2472 88 44 88C55.7528 88 66.8021 83.4231 75.1128 75.1126C83.4231 66.8021 88 55.7528 88 44C88 32.2472 83.4231 21.1979 75.1128 12.8874ZM44 82.8438C32.5069 82.8438 22.1655 77.8247 15.0473 69.8653C19.4602 58.1663 30.7567 49.8438 44 49.8438C35.4568 49.8438 28.5312 42.9182 28.5312 34.375C28.5312 25.8318 35.4568 18.9062 44 18.9062C52.5432 18.9062 59.4688 25.8318 59.4688 34.375C59.4688 42.9182 52.5432 49.8438 44 49.8438C57.2433 49.8438 68.5398 58.1663 72.9527 69.8653C65.8345 77.8247 55.4931 82.8438 44 82.8438Z" fill="#CDCED2"/>
</svg>
