<svg width="40" height="40" viewBox="0 0 40 40" fill="none" xmlns="http://www.w3.org/2000/svg">
<rect width="40" height="40" rx="20" fill="#F5F5F7"/>
<path fill-rule="evenodd" clip-rule="evenodd" d="M18.9965 19.9668H12.1261C12.0823 19.9668 12.0403 19.9494 12.0093 19.9184C11.9783 19.8874 11.9609 19.8454 11.9609 19.8016V17.6877C11.9609 16.726 12.3354 15.8219 13.0155 15.1419C13.6955 14.4619 14.5996 14.0874 15.5613 14.0874C16.5229 14.0874 17.4271 14.4619 18.1071 15.1419C18.7872 15.822 19.1617 16.7261 19.1617 17.6877V19.8016C19.1617 19.8454 19.1443 19.8874 19.1133 19.9184C19.0823 19.9494 19.0403 19.9668 18.9965 19.9668ZM12.2913 19.6365H18.8313V17.6878C18.8313 15.8847 17.3644 14.4178 15.5613 14.4178C13.7583 14.4178 12.2913 15.8847 12.2913 17.6878V19.6365Z" fill="#366082"/>
<path fill-rule="evenodd" clip-rule="evenodd" d="M19.5162 19.165L19.5066 19.265L19.4199 20.1755L19.3481 20.9291L18.8596 26.0567L18.7878 26.8103L18.7283 27.4341C18.7166 27.5568 18.6595 27.6708 18.5683 27.7538C18.477 27.8367 18.3581 27.8827 18.2348 27.8827H12.8868C12.7635 27.8827 12.6446 27.8368 12.5533 27.7538C12.4621 27.6708 12.405 27.5568 12.3933 27.4341L12.3338 26.8103L12.262 26.0567L11.7736 20.9291L11.7018 20.1755L11.615 19.265L11.6055 19.165H19.5162Z" fill="#5EA3FA"/>
<path fill-rule="evenodd" clip-rule="evenodd" d="M19.42 20.1752L19.3482 20.9288H11.7737L11.7019 20.1752H19.42ZM18.8597 26.0564L18.7879 26.81H12.334L12.2622 26.0564H18.8597ZM19.801 19.2647H11.3209C11.2415 19.2647 11.1654 19.2331 11.1092 19.1769C11.053 19.1208 11.0215 19.0446 11.0215 18.9652V18.2589C11.0215 18.1795 11.053 18.1033 11.1092 18.0472C11.1654 17.991 11.2415 17.9595 11.3209 17.9595H19.801C19.8804 17.9595 19.9566 17.991 20.0128 18.0472C20.0689 18.1033 20.1005 18.1795 20.1005 18.2589V18.9652C20.1005 19.0446 20.069 19.1208 20.0128 19.177C19.9566 19.2331 19.8804 19.2647 19.801 19.2647Z" fill="#ED4959"/>
<path fill-rule="evenodd" clip-rule="evenodd" d="M21.8609 17.2016L21.932 17.493C21.9675 17.6386 22.0423 17.7716 22.1483 17.8775C22.2542 17.9834 22.3872 18.0582 22.5327 18.0938L22.8242 18.1649L22.5327 18.236C22.3872 18.2715 22.2542 18.3463 22.1483 18.4523C22.0423 18.5582 21.9675 18.6912 21.932 18.8367L21.8609 19.1282L21.7898 18.8367C21.7542 18.6912 21.6794 18.5582 21.5735 18.4523C21.4676 18.3463 21.3346 18.2715 21.189 18.236L20.8976 18.1649L21.189 18.0938C21.3346 18.0582 21.4676 17.9834 21.5735 17.8775C21.6794 17.7716 21.7542 17.6386 21.7898 17.493L21.8609 17.2016ZM22.8295 14.5557L22.8682 14.7145C22.8876 14.7938 22.9283 14.8663 22.9861 14.924C23.0438 14.9817 23.1163 15.0225 23.1956 15.0418L23.3544 15.0805L23.1956 15.1193C23.1163 15.1386 23.0438 15.1794 22.9861 15.2371C22.9283 15.2948 22.8876 15.3673 22.8682 15.4466L22.8295 15.6055L22.7908 15.4466C22.7714 15.3673 22.7307 15.2949 22.673 15.2371C22.6152 15.1794 22.5428 15.1386 22.4635 15.1193L22.3046 15.0805L22.4635 15.0418C22.5428 15.0225 22.6152 14.9817 22.673 14.924C22.7307 14.8663 22.7714 14.7938 22.7908 14.7145L22.8295 14.5557ZM20.6164 15.1916L20.6728 15.4227C20.701 15.5382 20.7603 15.6436 20.8443 15.7276C20.9283 15.8116 21.0338 15.871 21.1492 15.8991L21.3803 15.9555L21.1492 16.0119C21.0338 16.0401 20.9283 16.0994 20.8443 16.1834C20.7603 16.2674 20.701 16.3729 20.6728 16.4883L20.6164 16.7194L20.5601 16.4883C20.5319 16.3729 20.4726 16.2674 20.3886 16.1834C20.3045 16.0994 20.1991 16.0401 20.0837 16.0119L19.8525 15.9555L20.0837 15.8991C20.1991 15.871 20.3045 15.8116 20.3886 15.7276C20.4726 15.6436 20.5319 15.5382 20.5601 15.4227L20.6164 15.1916ZM23.8052 21.7336L23.8616 21.9647C23.8898 22.0801 23.9491 22.1856 24.0331 22.2696C24.1171 22.3536 24.2226 22.4129 24.338 22.4411L24.5691 22.4975L24.338 22.5539C24.2226 22.582 24.1171 22.6413 24.0331 22.7254C23.9491 22.8094 23.8898 22.9148 23.8616 23.0302L23.8052 23.2614L23.7488 23.0302C23.7207 22.9148 23.6613 22.8094 23.5773 22.7254C23.4933 22.6414 23.3879 22.582 23.2724 22.5539L23.0413 22.4975L23.2724 22.4411C23.3879 22.4129 23.4933 22.3536 23.5773 22.2696C23.6613 22.1856 23.7207 22.0801 23.7488 21.9647L23.8052 21.7336Z" fill="#B3DAFE"/>
<path fill-rule="evenodd" clip-rule="evenodd" d="M20.6572 22.3468L28.0074 12.4137C28.0505 12.3552 28.1047 12.3058 28.1669 12.2684C28.2292 12.231 28.2982 12.2063 28.3701 12.1957C28.4418 12.1848 28.5151 12.1882 28.5855 12.2058C28.656 12.2234 28.7222 12.2547 28.7805 12.2981C29.0255 12.4794 29.0773 12.8261 28.896 13.0712L21.5486 23.0004L20.6572 22.3468Z" fill="#ECBBA3"/>
<path fill-rule="evenodd" clip-rule="evenodd" d="M19.2222 22.2064C19.2222 22.2064 18.9092 22.1901 18.4258 22.215C14.7486 22.404 14.8943 27.8826 18.5763 27.8826H25.096C25.5582 27.8826 25.842 27.3699 25.5901 26.9823C25.2649 26.4818 24.3248 25.9589 22.7902 25.9589C19.8465 25.9589 22.0987 24.335 22.0987 24.335L19.2222 22.2064Z" fill="#FFE382"/>
<path fill-rule="evenodd" clip-rule="evenodd" d="M21.8089 22.3989L21.1577 21.9171C20.5432 21.4624 19.6764 21.5919 19.2217 22.2064L22.0982 24.335C22.553 23.7204 22.4234 22.8536 21.8089 22.3989Z" fill="#C48360"/>
<path fill-rule="evenodd" clip-rule="evenodd" d="M15.5661 21.5086V17.9595H12.6787V21.5086L12.7215 21.4907C13.1652 21.3049 13.6414 21.2091 14.1224 21.2091C14.6035 21.2091 15.0797 21.3049 15.5233 21.4907L15.5661 21.5086Z" fill="#A5C9EB"/>
<path fill-rule="evenodd" clip-rule="evenodd" d="M14.2527 21.2115C14.6862 21.1928 15.1223 21.2859 15.5303 21.4908L15.5659 21.5086V17.9595H13.1572V21.34L14.2527 21.2115Z" fill="#B3DAFE"/>
</svg>
