<svg width="40" height="40" viewBox="0 0 40 40" fill="none" xmlns="http://www.w3.org/2000/svg">
<rect width="40" height="40" rx="20" fill="#F5F5F7"/>
<g clip-path="url(#clip0_23124_4848)">
<path d="M20 10C14.486 10 10 14.486 10 20C10 25.514 14.486 30 20 30C25.514 30 30 25.514 30 20C30 14.486 25.514 10 20 10ZM15.1515 21.5152C14.3161 21.5152 13.6364 20.8355 13.6364 20C13.6364 19.1645 14.3161 18.4848 15.1515 18.4848C15.987 18.4848 16.6667 19.1645 16.6667 20C16.6667 20.8355 15.987 21.5152 15.1515 21.5152ZM20 21.5152C19.1645 21.5152 18.4848 20.8355 18.4848 20C18.4848 19.1645 19.1645 18.4848 20 18.4848C20.8355 18.4848 21.5152 19.1645 21.5152 20C21.5152 20.8355 20.8355 21.5152 20 21.5152ZM24.8485 21.5152C24.013 21.5152 23.3333 20.8355 23.3333 20C23.3333 19.1645 24.013 18.4848 24.8485 18.4848C25.6839 18.4848 26.3636 19.1645 26.3636 20C26.3636 20.8355 25.6839 21.5152 24.8485 21.5152Z" fill="url(#paint0_linear_23124_4848)"/>
</g>
<defs>
<linearGradient id="paint0_linear_23124_4848" x1="10" y1="20" x2="30" y2="20" gradientUnits="userSpaceOnUse">
<stop stop-color="#042D63"/>
<stop offset="1" stop-color="#03A188"/>
</linearGradient>
<clipPath id="clip0_23124_4848">
<rect width="20" height="20" fill="white" transform="translate(10 10)"/>
</clipPath>
</defs>
</svg>
