<svg width="40" height="40" viewBox="0 0 40 40" fill="none" xmlns="http://www.w3.org/2000/svg">
<rect width="40" height="40" rx="20" fill="#F5F5F7"/>
<g clip-path="url(#clip0_23124_4144)">
<path d="M26.2327 30.0001H13.7664C13.0521 30.0001 12.4533 29.4603 12.3795 28.7498L10.8623 14.1387H29.1368L27.6196 28.7498C27.5458 29.4603 26.947 30.0001 26.2327 30.0001Z" fill="url(#paint0_linear_23124_4144)"/>
<path d="M29.1373 14.1387L28.6765 18.5771L27.62 28.75C27.5463 29.4602 26.9475 30.0002 26.2329 30.0002H20V14.1387H29.1373Z" fill="url(#paint1_linear_23124_4144)"/>
<path d="M29.1368 14.1387L27.6196 28.75C27.5458 29.4602 26.947 30.0002 26.2325 30.0002H22.7454L11.3231 18.5779L10.8623 14.1387H29.1368Z" fill="url(#paint2_linear_23124_4144)"/>
<path d="M11.9697 24.8018L12.3797 28.7498C12.4535 29.4603 13.0523 30.0002 13.7666 30.0002H26.2328C26.9471 30.0002 27.546 29.4603 27.6197 28.7498L28.0297 24.8018H11.9697Z" fill="url(#paint3_linear_23124_4144)"/>
<path d="M20 13.5129C20 15.1282 12.7451 15.1282 12.7451 13.5129C12.7451 11.8976 13.9928 10 15.5318 10C17.0709 10 20 11.8976 20 13.5129Z" fill="url(#paint4_linear_23124_4144)"/>
<path d="M17.7502 13.8045C17.7502 12.578 15.5262 11.1372 14.3576 11.1372C13.9721 11.1372 13.6111 11.2946 13.2998 11.5488C12.9515 12.1524 12.7451 12.856 12.7451 13.5129C12.7451 14.2106 14.0988 14.6069 15.6367 14.7018C16.7701 14.6209 17.7502 14.3218 17.7502 13.8045Z" fill="url(#paint5_linear_23124_4144)"/>
<path d="M20 13.5129C20 15.1282 27.2549 15.1282 27.2549 13.5129C27.2549 11.8976 26.0073 10 24.4682 10C22.9291 10 20 11.8976 20 13.5129Z" fill="url(#paint6_linear_23124_4144)"/>
<path d="M22.25 13.8045C22.25 12.578 24.474 11.1372 25.6426 11.1372C26.0281 11.1372 26.3891 11.2946 26.7004 11.5488C27.0487 12.1524 27.2551 12.856 27.2551 13.5129C27.2551 14.2106 25.9014 14.6069 24.3635 14.7018C23.2301 14.6209 22.25 14.3218 22.25 13.8045Z" fill="url(#paint7_linear_23124_4144)"/>
<path d="M28.6307 18.5773H11.3693C10.6131 18.5773 10 17.9643 10 17.2081V14.7482C10 13.992 10.6131 13.3789 11.3693 13.3789H28.6307C29.3869 13.3789 30 13.992 30 14.7482V17.208C30 17.9643 29.3869 18.5773 28.6307 18.5773Z" fill="url(#paint8_linear_23124_4144)"/>
<path d="M30 14.7484V17.2084C30 17.9492 29.4118 18.5527 28.6765 18.577C28.6612 18.5774 28.6459 18.5778 28.6306 18.5778H20V13.3794H28.6306C29.3871 13.3794 30 13.9923 30 14.7484Z" fill="url(#paint9_linear_23124_4144)"/>
<path d="M10 15.9785V17.2085C10 17.9647 10.6131 18.5777 11.3693 18.5777H28.6307C29.3869 18.5777 30 17.9647 30 17.2085V15.9785H10Z" fill="url(#paint10_linear_23124_4144)"/>
<path d="M21.3118 18.7365H18.6888C18.4362 18.7365 18.2314 18.5318 18.2314 18.2792V13.6775C18.2314 13.425 18.4362 13.2202 18.6888 13.2202H21.3118C21.5643 13.2202 21.7691 13.425 21.7691 13.6775V18.2792C21.7691 18.5318 21.5643 18.7365 21.3118 18.7365Z" fill="url(#paint11_linear_23124_4144)"/>
<path d="M23.627 17.2778L16.3721 22.6173L23.7547 29.9999H26.2327C26.947 29.9999 27.5458 29.4601 27.6196 28.7496L28.3231 21.974L23.627 17.2778Z" fill="url(#paint12_linear_23124_4144)"/>
<path d="M21.3118 30.0001H18.6888C18.4362 30.0001 18.2314 29.7953 18.2314 29.5427V17.8616C18.2314 17.609 18.4362 17.4043 18.6888 17.4043H21.3118C21.5643 17.4043 21.7691 17.609 21.7691 17.8616V29.5427C21.7691 29.7953 21.5643 30.0001 21.3118 30.0001Z" fill="url(#paint13_linear_23124_4144)"/>
<path d="M21.3118 17.4043H18.6888C18.4362 17.4043 18.2314 17.609 18.2314 17.8616V25.4854L21.7691 29.023V17.8616C21.7691 17.6091 21.5643 17.4043 21.3118 17.4043Z" fill="url(#paint14_linear_23124_4144)"/>
<path d="M21.7687 17.8616V28.0133L18.2314 24.4761V17.8616C18.2314 17.609 18.4362 17.4043 18.6887 17.4043H21.3114C21.564 17.4043 21.7687 17.609 21.7687 17.8616Z" fill="url(#paint15_linear_23124_4144)"/>
<path d="M24.3224 20.4165L23.9131 20.8331C23.8338 20.9138 23.7743 21.0118 23.7393 21.1194C23.7043 21.2271 23.6949 21.3413 23.7116 21.4533L23.7979 22.0307C23.8568 22.4251 23.5887 22.7939 23.1953 22.8595L22.6198 22.9555C22.508 22.9741 22.402 23.0185 22.3103 23.0852C22.2186 23.1518 22.1437 23.2389 22.0914 23.3395L21.823 23.8564C21.6391 24.2107 21.2048 24.3518 20.8477 24.1733L20.3266 23.9127C20.2252 23.862 20.1133 23.8356 19.9998 23.8356C19.8864 23.8356 19.7745 23.862 19.673 23.9127L19.152 24.1733C18.7949 24.3518 18.3606 24.2107 18.1766 23.8564L17.9082 23.3395C17.856 23.2389 17.7811 23.1518 17.6894 23.0852C17.5977 23.0185 17.4917 22.9741 17.3799 22.9555L16.8044 22.8595C16.411 22.7939 16.1429 22.4251 16.2018 22.0307L16.2881 21.4533C16.3049 21.3414 16.2954 21.2271 16.2604 21.1195C16.2254 21.0118 16.1659 20.9138 16.0866 20.8331L15.6773 20.4165C15.3979 20.1322 15.3979 19.6765 15.6773 19.3922L16.0866 18.9756C16.1659 18.8948 16.2254 18.7968 16.2604 18.6892C16.2954 18.5816 16.3049 18.4673 16.2881 18.3554L16.2018 17.778C16.1429 17.3836 16.411 17.0147 16.8044 16.9491L17.3799 16.8532C17.4918 16.8345 17.5977 16.7901 17.6894 16.7235C17.7811 16.6568 17.856 16.5697 17.9083 16.4691L18.1767 15.9523C18.3606 15.598 18.795 15.4569 19.152 15.6354L19.6731 15.8959C19.7745 15.9467 19.8864 15.9731 19.9999 15.9731C20.1133 15.9731 20.2252 15.9467 20.3267 15.8959L20.8477 15.6354C21.2048 15.4569 21.6391 15.5979 21.8231 15.9523L22.0915 16.4692C22.1437 16.5698 22.2187 16.6569 22.3104 16.7235C22.4021 16.7902 22.508 16.8346 22.6199 16.8532L23.1954 16.9492C23.5888 17.0147 23.8569 17.3836 23.798 17.778L23.7117 18.3554C23.6949 18.4673 23.7044 18.5816 23.7394 18.6892C23.7744 18.7968 23.8338 18.8948 23.9131 18.9756L24.3225 19.3922C24.6018 19.6764 24.6018 20.1322 24.3224 20.4165Z" fill="url(#paint16_linear_23124_4144)"/>
<path d="M20.0004 23.1454C21.7902 23.1454 23.2411 21.6945 23.2411 19.9047C23.2411 18.115 21.7902 16.6641 20.0004 16.6641C18.2107 16.6641 16.7598 18.115 16.7598 19.9047C16.7598 21.6945 18.2107 23.1454 20.0004 23.1454Z" fill="url(#paint17_linear_23124_4144)"/>
<path d="M19.9996 22.6686C21.5262 22.6686 22.7638 21.431 22.7638 19.9044C22.7638 18.3777 21.5262 17.1401 19.9996 17.1401C18.4729 17.1401 17.2354 18.3777 17.2354 19.9044C17.2354 21.431 18.4729 22.6686 19.9996 22.6686Z" fill="url(#paint18_linear_23124_4144)"/>
<path d="M16.0866 20.8331C16.1659 20.9138 16.2254 21.0118 16.2604 21.1195C16.2954 21.2271 16.3049 21.3414 16.2881 21.4533L16.2018 22.0306C16.1429 22.425 16.411 22.7939 16.8044 22.8595L17.3799 22.9554C17.4917 22.9741 17.5977 23.0185 17.6894 23.0851C17.7811 23.1518 17.856 23.2389 17.9082 23.3395L18.1766 23.8564C18.3606 24.2107 18.7949 24.3518 19.152 24.1732L19.673 23.9127C19.7745 23.862 19.8864 23.8355 19.9998 23.8355C20.1133 23.8355 20.2252 23.862 20.3266 23.9127L20.8477 24.1732C21.2048 24.3517 21.639 24.2107 21.823 23.8563L22.0914 23.3395C22.1437 23.2389 22.2186 23.1518 22.3103 23.0851C22.402 23.0185 22.508 22.9741 22.6198 22.9554L23.1953 22.8595C23.5887 22.7939 23.8568 22.425 23.7979 22.0306L23.7116 21.4532C23.6948 21.3413 23.7043 21.227 23.7393 21.1194C23.7743 21.0118 23.8338 20.9138 23.9131 20.833L24.3224 20.4165C24.4569 20.2799 24.5322 20.0959 24.5319 19.9043H15.4678C15.4678 20.0893 15.5376 20.2743 15.6773 20.4165L16.0866 20.8331Z" fill="url(#paint19_linear_23124_4144)"/>
</g>
<defs>
<linearGradient id="paint0_linear_23124_4144" x1="15.9387" y1="16.8453" x2="27.7536" y2="28.6602" gradientUnits="userSpaceOnUse">
<stop stop-color="#FEE45A"/>
<stop offset="1" stop-color="#FEA613"/>
</linearGradient>
<linearGradient id="paint1_linear_23124_4144" x1="24.902" y1="22.0695" x2="21.1746" y2="22.0695" gradientUnits="userSpaceOnUse">
<stop stop-color="#FEA613" stop-opacity="0"/>
<stop offset="1" stop-color="#E94444"/>
</linearGradient>
<linearGradient id="paint2_linear_23124_4144" x1="19.9996" y1="24.7061" x2="19.9996" y2="15.698" gradientUnits="userSpaceOnUse">
<stop stop-color="#FEA613" stop-opacity="0"/>
<stop offset="1" stop-color="#E94444"/>
</linearGradient>
<linearGradient id="paint3_linear_23124_4144" x1="19.9997" y1="26.9276" x2="19.9997" y2="30.3397" gradientUnits="userSpaceOnUse">
<stop stop-color="#FEA613" stop-opacity="0"/>
<stop offset="1" stop-color="#E94444"/>
</linearGradient>
<linearGradient id="paint4_linear_23124_4144" x1="14.7755" y1="10.4244" x2="17.3126" y2="15.1141" gradientUnits="userSpaceOnUse">
<stop stop-color="#FEDBBD"/>
<stop offset="1" stop-color="#FD3581"/>
</linearGradient>
<linearGradient id="paint5_linear_23124_4144" x1="14.5572" y1="13.6653" x2="17.1999" y2="11.224" gradientUnits="userSpaceOnUse">
<stop stop-color="#FE646F" stop-opacity="0"/>
<stop offset="0.297" stop-color="#FC616A" stop-opacity="0.297"/>
<stop offset="0.621" stop-color="#F5575D" stop-opacity="0.621"/>
<stop offset="0.959" stop-color="#EB4747" stop-opacity="0.959"/>
<stop offset="1" stop-color="#E94444"/>
</linearGradient>
<linearGradient id="paint6_linear_23124_4144" x1="25.2245" y1="10.4244" x2="22.6874" y2="15.1141" gradientUnits="userSpaceOnUse">
<stop stop-color="#FEDBBD"/>
<stop offset="1" stop-color="#FD3581"/>
</linearGradient>
<linearGradient id="paint7_linear_23124_4144" x1="25.443" y1="13.6653" x2="22.8004" y2="11.224" gradientUnits="userSpaceOnUse">
<stop stop-color="#FE646F" stop-opacity="0"/>
<stop offset="0.297" stop-color="#FC616A" stop-opacity="0.297"/>
<stop offset="0.621" stop-color="#F5575D" stop-opacity="0.621"/>
<stop offset="0.959" stop-color="#EB4747" stop-opacity="0.959"/>
<stop offset="1" stop-color="#E94444"/>
</linearGradient>
<linearGradient id="paint8_linear_23124_4144" x1="18.1048" y1="11.398" x2="21.8695" y2="20.496" gradientUnits="userSpaceOnUse">
<stop stop-color="#FEE45A"/>
<stop offset="1" stop-color="#FEA613"/>
</linearGradient>
<linearGradient id="paint9_linear_23124_4144" x1="24.4706" y1="15.9786" x2="20.6665" y2="15.9786" gradientUnits="userSpaceOnUse">
<stop stop-color="#FEA613" stop-opacity="0"/>
<stop offset="1" stop-color="#E94444"/>
</linearGradient>
<linearGradient id="paint10_linear_23124_4144" x1="20" y1="16.6669" x2="20" y2="19.6928" gradientUnits="userSpaceOnUse">
<stop stop-color="#FEA613" stop-opacity="0"/>
<stop offset="1" stop-color="#E94444"/>
</linearGradient>
<linearGradient id="paint11_linear_23124_4144" x1="18.9128" y1="14.8909" x2="22.0767" y2="18.0548" gradientUnits="userSpaceOnUse">
<stop stop-color="#FEDBBD"/>
<stop offset="1" stop-color="#FD3581"/>
</linearGradient>
<linearGradient id="paint12_linear_23124_4144" x1="25.7643" y1="25.7123" x2="19.7208" y2="19.6688" gradientUnits="userSpaceOnUse">
<stop stop-color="#FEA613" stop-opacity="0"/>
<stop offset="1" stop-color="#E94444"/>
</linearGradient>
<linearGradient id="paint13_linear_23124_4144" x1="13.0878" y1="19.4172" x2="23.146" y2="25.6522" gradientUnits="userSpaceOnUse">
<stop stop-color="#FEDBBD"/>
<stop offset="1" stop-color="#FD3581"/>
</linearGradient>
<linearGradient id="paint14_linear_23124_4144" x1="20.0003" y1="26.3138" x2="20.0003" y2="16.3867" gradientUnits="userSpaceOnUse">
<stop stop-color="#FE646F" stop-opacity="0"/>
<stop offset="0.297" stop-color="#FC616A" stop-opacity="0.297"/>
<stop offset="0.621" stop-color="#F5575D" stop-opacity="0.621"/>
<stop offset="0.959" stop-color="#EB4747" stop-opacity="0.959"/>
<stop offset="1" stop-color="#E94444"/>
</linearGradient>
<linearGradient id="paint15_linear_23124_4144" x1="22.1774" y1="27.7204" x2="20.6676" y2="23.1517" gradientUnits="userSpaceOnUse">
<stop stop-color="#FE646F" stop-opacity="0"/>
<stop offset="0.297" stop-color="#FC616A" stop-opacity="0.297"/>
<stop offset="0.621" stop-color="#F5575D" stop-opacity="0.621"/>
<stop offset="0.959" stop-color="#EB4747" stop-opacity="0.959"/>
<stop offset="1" stop-color="#E94444"/>
</linearGradient>
<linearGradient id="paint16_linear_23124_4144" x1="17.255" y1="17.1594" x2="24.2224" y2="24.1268" gradientUnits="userSpaceOnUse">
<stop stop-color="#8AC9FE"/>
<stop offset="1" stop-color="#814AA0"/>
</linearGradient>
<linearGradient id="paint17_linear_23124_4144" x1="23.0685" y1="22.9728" x2="15.7056" y2="15.6099" gradientUnits="userSpaceOnUse">
<stop stop-color="#8AC9FE"/>
<stop offset="1" stop-color="#814AA0"/>
</linearGradient>
<linearGradient id="paint18_linear_23124_4144" x1="18.0522" y1="17.9569" x2="21.8653" y2="21.7701" gradientUnits="userSpaceOnUse">
<stop stop-color="#8AC9FE"/>
<stop offset="1" stop-color="#814AA0"/>
</linearGradient>
<linearGradient id="paint19_linear_23124_4144" x1="19.9999" y1="20.9966" x2="19.9999" y2="25.2327" gradientUnits="userSpaceOnUse">
<stop stop-color="#5B3374" stop-opacity="0"/>
<stop offset="1" stop-color="#5B3374"/>
</linearGradient>
<clipPath id="clip0_23124_4144">
<rect width="20" height="20" fill="white" transform="translate(10 10)"/>
</clipPath>
</defs>
</svg>
