<svg width="40" height="40" viewBox="0 0 40 40" fill="none" xmlns="http://www.w3.org/2000/svg">
<rect width="40" height="40" rx="20" fill="#F5F5F7"/>
<path d="M27.043 14.3672V29.1484C27.043 29.4922 26.7617 29.7734 26.418 29.7734H13.582C13.2383 29.7734 12.957 29.4922 12.957 29.1484V10.8477C12.957 10.5039 13.2383 10.2227 13.582 10.2227H22.8945L27.043 14.3672Z" fill="white"/>
<path d="M27.043 14.3672V29.1484C27.043 29.4961 26.7656 29.7734 26.418 29.7734H25.1953C25.5391 29.7734 25.8203 29.4961 25.8203 29.1484V14.3672H27.043Z" fill="black" fill-opacity="0.0823529"/>
<path d="M27.043 14.3672L23.5195 14.3711C23.1758 14.3711 22.8945 14.0898 22.8945 13.7461V10.2266L27.043 14.3672Z" fill="#D2D8D8"/>
<path d="M23.0898 17.9414L22.5742 18.2461V22.1836L22.8789 22.0039C23.0547 21.8984 23.1641 21.7109 23.1641 21.5039V18.2305C23.168 18.125 23.1406 18.0273 23.0898 17.9414Z" fill="black" fill-opacity="0.0823529"/>
<path d="M20 19.7695V23.6133C19.9023 23.6133 19.8008 23.5898 19.7109 23.5391C19.707 23.5391 19.707 23.5391 19.7031 23.5352L17.1211 22.0078C16.9453 21.9023 16.8359 21.7148 16.8359 21.5078V18.2344C16.8359 18.1328 16.8633 18.0352 16.9102 17.9453L20 19.7695Z" fill="#FDDC8D"/>
<path opacity="0.5" d="M17.293 18.168L16.9102 17.9414C16.8633 18.0273 16.8359 18.125 16.8359 18.2305V21.5039C16.8359 21.7109 16.9453 21.8984 17.1211 22.0039L17.293 22.1055V18.168Z" fill="white"/>
<path opacity="0.15" d="M19.4375 19.4336V23.3711L19.7031 23.5273C19.707 23.5273 19.707 23.5312 19.7109 23.5312C19.8008 23.582 19.8984 23.6055 20 23.6055V19.7617L19.4375 19.4336Z" fill="black"/>
<path d="M23.168 18.2305V21.5039C23.168 21.7109 23.0586 21.8984 22.8828 22.0039L20.3008 23.5312C20.2969 23.5312 20.2969 23.5352 20.293 23.5352C20.2891 23.5352 20.2891 23.5391 20.2852 23.5391C20.1992 23.5859 20.1016 23.6094 20.0078 23.6094V19.7656L23.0977 17.9375C23.1406 18.0273 23.168 18.125 23.168 18.2305Z" fill="#A5E0FA"/>
<path opacity="0.5" d="M20.4844 19.4805L20 19.7656V23.6094C20.0938 23.6094 20.1914 23.5898 20.2773 23.5391C20.2813 23.5391 20.2812 23.5391 20.2852 23.5352C20.2891 23.5352 20.2891 23.5312 20.293 23.5312L20.4805 23.4219V19.4805H20.4844Z" fill="white"/>
<path d="M23.0898 17.9414L20 19.7695L16.9102 17.9414C16.957 17.8555 17.0313 17.7812 17.1172 17.7305L19.6992 16.2031C19.7031 16.2031 19.7031 16.1992 19.707 16.1992C19.8867 16.0977 20.1055 16.0977 20.2813 16.1992C20.2852 16.1992 20.2852 16.2031 20.2891 16.2031L22.8711 17.7305C22.9688 17.7812 23.043 17.8555 23.0898 17.9414Z" fill="#FB888B"/>
<path d="M27.2031 14.207L23.0547 10.0664C23.0156 10.0273 22.9453 10 22.8945 10H13.582C13.1133 10 12.7344 10.3789 12.7344 10.8477V29.1484C12.7344 29.6172 13.1133 29.9961 13.582 29.9961H26.418C26.8867 29.9961 27.2656 29.6172 27.2656 29.1484V14.3672C27.2656 14.3086 27.2422 14.25 27.2031 14.207ZM23.1211 10.7695L26.5 14.1484H23.5195C23.3008 14.1484 23.1211 13.9688 23.1211 13.75V10.7695ZM26.418 29.5508H13.582C13.3633 29.5508 13.1836 29.3711 13.1836 29.1523V10.8477C13.1836 10.6289 13.3633 10.4492 13.582 10.4492H22.6719V13.7461C22.6719 14.2148 23.0508 14.5938 23.5195 14.5938H26.8164V29.1484C26.8164 29.3711 26.6367 29.5508 26.418 29.5508Z" fill="black"/>
<path d="M23.707 25.7228H16.293C16.168 25.7228 16.0664 25.8243 16.0664 25.9493C16.0664 26.0743 16.168 26.1759 16.293 26.1759H23.7031C23.8281 26.1759 23.9297 26.0743 23.9297 25.9493C23.9297 25.8243 23.8281 25.7228 23.707 25.7228ZM21.8516 27.797H18.1445C18.0195 27.797 17.918 27.8986 17.918 28.0236C17.918 28.1486 18.0195 28.2501 18.1445 28.2501H21.8516C21.9766 28.2501 22.0781 28.1486 22.0781 28.0236C22.0781 27.8986 21.9766 27.797 21.8516 27.797ZM16.9883 22.1876C17.0039 22.1993 19.5977 23.7306 19.6172 23.7384C19.8633 23.8751 20.1758 23.8595 20.3828 23.7423C20.4062 23.7345 23 22.1954 23.0117 22.1876C23.2461 22.0392 23.3906 21.7775 23.3906 21.504V18.2306C23.3906 17.9454 23.2422 17.6837 22.9922 17.5353L20.418 16.0118C20.207 15.8673 19.8516 15.8517 19.5859 16.0079C16.6406 17.7501 17.0156 17.5236 16.9883 17.547C16.7422 17.6993 16.6094 17.9611 16.6094 18.2306V21.504C16.6094 21.7775 16.7539 22.0392 16.9883 22.1876ZM17.2344 21.8087C17.125 21.7423 17.0586 21.629 17.0586 21.5001V18.2892C17.3047 18.4337 19.0977 19.4923 19.7773 19.8947V23.3087C19.2422 22.9962 17.2812 21.8361 17.2344 21.8087ZM22.7656 21.8087C22.7148 21.84 21.4297 22.6017 20.2266 23.3126V19.8947L22.9414 18.2892V21.5001C22.9414 21.629 22.875 21.7423 22.7656 21.8087ZM19.8242 16.3907C19.9375 16.3282 20.0703 16.3282 20.1836 16.3907L22.7227 17.8947C22.4414 18.0587 20.332 19.3087 20 19.504L17.2734 17.8947C17.8086 17.5822 19.668 16.4806 19.8242 16.3907Z" fill="black"/>
</svg>
