<svg width="40" height="40" viewBox="0 0 40 40" fill="none" xmlns="http://www.w3.org/2000/svg">
<rect width="40" height="40" rx="20" fill="#F5F5F7"/>
<g clip-path="url(#clip0_23124_3890)">
<path d="M15.227 17.591H11.5654V12.7489C11.5654 12.4744 11.7879 12.252 12.0623 12.252H14.7301C15.0045 12.252 15.227 12.4744 15.227 12.7489V17.591Z" fill="url(#paint0_linear_23124_3890)"/>
<path d="M15.227 17.591H11.5654V12.7489C11.5654 12.4744 11.7879 12.252 12.0623 12.252H14.7301C15.0045 12.252 15.227 12.4744 15.227 12.7489V17.591Z" fill="url(#paint1_linear_23124_3890)"/>
<path d="M15.2271 12.7488V17.5907H12.9717V12.252H14.7304C15.0045 12.252 15.2271 12.4743 15.2271 12.7488Z" fill="url(#paint2_linear_23124_3890)"/>
<path d="M24.5063 14.9214H15.4927L11.5654 17.8283V27.0303C11.5654 27.4265 11.8866 27.7478 12.2829 27.7478H27.7162C28.1124 27.7478 28.4337 27.4266 28.4337 27.0303V17.8283L24.5063 14.9214Z" fill="url(#paint3_linear_23124_3890)"/>
<path d="M24.5063 14.9214H15.4927L11.5654 17.8283V27.0303C11.5654 27.4265 11.8866 27.7478 12.2829 27.7478H27.7162C28.1124 27.7478 28.4337 27.4266 28.4337 27.0303V17.8283L24.5063 14.9214Z" fill="url(#paint4_linear_23124_3890)"/>
<path d="M24.5068 14.9214H18.541L22.4683 17.8283V27.0303C22.4683 27.4265 22.1471 27.7478 21.7508 27.7478H27.7165C28.1128 27.7478 28.434 27.4266 28.434 27.0303V17.8283L24.5068 14.9214Z" fill="url(#paint5_linear_23124_3890)"/>
<path d="M11.5654 23.0596V27.0307C11.5654 27.4269 11.8866 27.7482 12.2829 27.7482H27.7162C28.1124 27.7482 28.4337 27.427 28.4337 27.0307V23.0596H11.5654Z" fill="url(#paint6_linear_23124_3890)"/>
<path d="M24.001 14.9214V27.7478H27.717C28.1133 27.7478 28.4345 27.4266 28.4345 27.0303V17.8283L24.5072 14.9214H24.001Z" fill="url(#paint7_linear_23124_3890)"/>
<path d="M28.4339 24.9217V19.0552H22.5674L28.4339 24.9217Z" fill="url(#paint8_linear_23124_3890)"/>
<path d="M16.0251 21.7683H13.8393C13.5802 21.7683 13.3701 21.5582 13.3701 21.2991V19.1132C13.3701 18.8541 13.5802 18.644 13.8393 18.644H16.0252C16.2843 18.644 16.4943 18.8541 16.4943 19.1132V21.2991C16.4943 21.5582 16.2843 21.7683 16.0251 21.7683Z" fill="url(#paint9_linear_23124_3890)"/>
<path d="M20.1951 21.7683H18.0092C17.7501 21.7683 17.54 21.5582 17.54 21.2991V19.1132C17.54 18.8541 17.7501 18.644 18.0092 18.644H20.1951C20.4542 18.644 20.6643 18.8541 20.6643 19.1132V21.2991C20.6643 21.5582 20.4542 21.7683 20.1951 21.7683Z" fill="url(#paint10_linear_23124_3890)"/>
<path d="M16.0251 25.8674H13.8393C13.5802 25.8674 13.3701 25.6573 13.3701 25.3982V23.2123C13.3701 22.9532 13.5802 22.7432 13.8393 22.7432H16.0252C16.2843 22.7432 16.4943 22.9532 16.4943 23.2123V25.3982C16.4943 25.6573 16.2843 25.8674 16.0251 25.8674Z" fill="url(#paint11_linear_23124_3890)"/>
<path d="M20.1951 25.8674H18.0092C17.7501 25.8674 17.54 25.6573 17.54 25.3982V23.2123C17.54 22.9532 17.7501 22.7432 18.0092 22.7432H20.1951C20.4542 22.7432 20.6643 22.9532 20.6643 23.2123V25.3982C20.6643 25.6573 20.4542 25.8674 20.1951 25.8674Z" fill="url(#paint12_linear_23124_3890)"/>
<path d="M16.0251 21.7683H13.8393C13.5802 21.7683 13.3701 21.5582 13.3701 21.2991V19.1132C13.3701 18.8541 13.5802 18.644 13.8393 18.644H16.0252C16.2843 18.644 16.4943 18.8541 16.4943 19.1132V21.2991C16.4943 21.5582 16.2843 21.7683 16.0251 21.7683Z" fill="url(#paint13_linear_23124_3890)"/>
<path d="M16.0251 21.7683H13.8393C13.5802 21.7683 13.3701 21.5582 13.3701 21.2991V19.1132C13.3701 18.8541 13.5802 18.644 13.8393 18.644H16.0252C16.2843 18.644 16.4943 18.8541 16.4943 19.1132V21.2991C16.4943 21.5582 16.2843 21.7683 16.0251 21.7683Z" fill="url(#paint14_linear_23124_3890)"/>
<path d="M20.1951 21.7683H18.0092C17.7501 21.7683 17.54 21.5582 17.54 21.2991V19.1132C17.54 18.8541 17.7501 18.644 18.0092 18.644H20.1951C20.4542 18.644 20.6643 18.8541 20.6643 19.1132V21.2991C20.6643 21.5582 20.4542 21.7683 20.1951 21.7683Z" fill="url(#paint15_linear_23124_3890)"/>
<path d="M20.1951 21.7683H18.0092C17.7501 21.7683 17.54 21.5582 17.54 21.2991V19.1132C17.54 18.8541 17.7501 18.644 18.0092 18.644H20.1951C20.4542 18.644 20.6643 18.8541 20.6643 19.1132V21.2991C20.6643 21.5582 20.4542 21.7683 20.1951 21.7683Z" fill="url(#paint16_linear_23124_3890)"/>
<path d="M16.0251 25.8674H13.8393C13.5802 25.8674 13.3701 25.6573 13.3701 25.3982V23.2123C13.3701 22.9532 13.5802 22.7432 13.8393 22.7432H16.0252C16.2843 22.7432 16.4943 22.9532 16.4943 23.2123V25.3982C16.4943 25.6573 16.2843 25.8674 16.0251 25.8674Z" fill="url(#paint17_linear_23124_3890)"/>
<path d="M16.0251 25.8674H13.8393C13.5802 25.8674 13.3701 25.6573 13.3701 25.3982V23.2123C13.3701 22.9532 13.5802 22.7432 13.8393 22.7432H16.0252C16.2843 22.7432 16.4943 22.9532 16.4943 23.2123V25.3982C16.4943 25.6573 16.2843 25.8674 16.0251 25.8674Z" fill="url(#paint18_linear_23124_3890)"/>
<path d="M20.1951 25.8674H18.0092C17.7501 25.8674 17.54 25.6573 17.54 25.3982V23.2123C17.54 22.9532 17.7501 22.7432 18.0092 22.7432H20.1951C20.4542 22.7432 20.6643 22.9532 20.6643 23.2123V25.3982C20.6643 25.6573 20.4542 25.8674 20.1951 25.8674Z" fill="url(#paint19_linear_23124_3890)"/>
<path d="M20.1951 25.8674H18.0092C17.7501 25.8674 17.54 25.6573 17.54 25.3982V23.2123C17.54 22.9532 17.7501 22.7432 18.0092 22.7432H20.1951C20.4542 22.7432 20.6643 22.9532 20.6643 23.2123V25.3982C20.6643 25.6573 20.4542 25.8674 20.1951 25.8674Z" fill="url(#paint20_linear_23124_3890)"/>
<path d="M29.6267 17.5769L23.7394 13.2189C23.5193 13.0558 23.2524 12.9682 22.9785 12.9692H17.0166L22.9823 19.2258H28.9479C29.2956 19.276 29.6587 19.1241 29.8594 18.8037C29.951 18.6576 29.9995 18.4886 29.9995 18.3162C29.9995 18.0338 29.8694 17.7564 29.6267 17.5769Z" fill="url(#paint21_linear_23124_3890)"/>
<path d="M29.6275 17.5769L23.7402 13.2189C23.5201 13.0558 23.2532 12.9682 22.9793 12.9692H20.0713V16.1721L22.9831 19.2258H28.9487C29.2964 19.276 29.6595 19.1241 29.8602 18.8037C29.9517 18.6576 30.0003 18.4886 30.0003 18.3162C30.0003 18.0338 29.8702 17.7564 29.6275 17.5769Z" fill="url(#paint22_linear_23124_3890)"/>
<path d="M22.983 19.2258H28.9486C29.2963 19.2759 29.6594 19.124 29.86 18.8036C29.9516 18.6575 30.0002 18.4885 30.0002 18.3161C30.0002 18.0337 29.8701 17.7563 29.6274 17.5767L27.4267 15.9478H19.8574L22.983 19.2258Z" fill="url(#paint23_linear_23124_3890)"/>
<path d="M17.2968 15.1538L22.5675 19.055C22.9984 19.3739 23.6096 19.2581 23.894 18.8037C24.1486 18.3968 24.0474 17.8624 23.6616 17.5768L17.774 13.2189C17.5549 13.0567 17.2896 12.9692 17.0171 12.9692C16.7446 12.9692 16.4792 13.0567 16.2602 13.2189L10.3725 17.5768C9.98668 17.8624 9.88547 18.3967 10.1401 18.8036C10.4245 19.2581 11.0357 19.3739 11.4666 19.0549L16.7373 15.1537C16.8182 15.0938 16.9163 15.0615 17.0171 15.0615C17.1178 15.0615 17.2159 15.0938 17.2968 15.1538Z" fill="url(#paint24_linear_23124_3890)"/>
<path d="M23.8901 18.8095L17.7737 14.2824C17.5547 14.1202 17.2893 14.0327 17.0168 14.0327C16.7443 14.0327 16.479 14.1202 16.2599 14.2824L10.1436 18.8095C10.4295 19.2593 11.0373 19.3729 11.4664 19.0553L16.737 15.1541C16.818 15.0942 16.9161 15.0618 17.0168 15.0618C17.1176 15.0618 17.2156 15.0942 17.2966 15.1541L22.5672 19.0553C22.9964 19.3729 23.6042 19.2593 23.8901 18.8095Z" fill="url(#paint25_linear_23124_3890)"/>
<path d="M19.4062 16.7152L22.5674 19.055C22.9983 19.3739 23.6096 19.2581 23.8939 18.8037C24.1486 18.3968 24.0474 17.8624 23.6615 17.5768L20.7211 15.4004L19.4062 16.7152Z" fill="url(#paint26_linear_23124_3890)"/>
<path d="M14.6278 16.7152L11.4666 19.055C11.0357 19.3739 10.4245 19.2581 10.1401 18.8037C9.88547 18.3968 9.98668 17.8624 10.3725 17.5768L13.313 15.4004L14.6278 16.7152Z" fill="url(#paint27_linear_23124_3890)"/>
</g>
<defs>
<linearGradient id="paint0_linear_23124_3890" x1="11.9755" y1="14.9215" x2="15.2505" y2="14.9215" gradientUnits="userSpaceOnUse">
<stop stop-color="#FEF0AE"/>
<stop offset="1" stop-color="#FBC56D"/>
</linearGradient>
<linearGradient id="paint1_linear_23124_3890" x1="12.8603" y1="14.3348" x2="13.6205" y2="15.4072" gradientUnits="userSpaceOnUse">
<stop stop-color="#DC8758" stop-opacity="0"/>
<stop offset="0.215" stop-color="#DD8654" stop-opacity="0.215"/>
<stop offset="0.429" stop-color="#E28448" stop-opacity="0.429"/>
<stop offset="0.642" stop-color="#EA8034" stop-opacity="0.642"/>
<stop offset="0.854" stop-color="#F47B18" stop-opacity="0.854"/>
<stop offset="1" stop-color="#FE7701"/>
</linearGradient>
<linearGradient id="paint2_linear_23124_3890" x1="14.0554" y1="14.9213" x2="15.2632" y2="14.9213" gradientUnits="userSpaceOnUse">
<stop stop-color="#DC8758" stop-opacity="0"/>
<stop offset="0.215" stop-color="#DD8654" stop-opacity="0.215"/>
<stop offset="0.429" stop-color="#E28448" stop-opacity="0.429"/>
<stop offset="0.642" stop-color="#EA8034" stop-opacity="0.642"/>
<stop offset="0.854" stop-color="#F47B18" stop-opacity="0.854"/>
<stop offset="1" stop-color="#FE7701"/>
</linearGradient>
<linearGradient id="paint3_linear_23124_3890" x1="13.902" y1="16.4804" x2="23.2115" y2="25.7899" gradientUnits="userSpaceOnUse">
<stop stop-color="#EAF9FA"/>
<stop offset="1" stop-color="#B3DAFE"/>
</linearGradient>
<linearGradient id="paint4_linear_23124_3890" x1="16.6704" y1="17.7617" x2="15.507" y2="16.0912" gradientUnits="userSpaceOnUse">
<stop stop-color="#7BACDF" stop-opacity="0"/>
<stop offset="1" stop-color="#7BACDF"/>
</linearGradient>
<linearGradient id="paint5_linear_23124_3890" x1="14.1287" y1="8.70248" x2="33.5844" y2="33.6981" gradientUnits="userSpaceOnUse">
<stop stop-color="#7BACDF" stop-opacity="0"/>
<stop offset="1" stop-color="#7BACDF"/>
</linearGradient>
<linearGradient id="paint6_linear_23124_3890" x1="19.9995" y1="25.9231" x2="19.9995" y2="27.7598" gradientUnits="userSpaceOnUse">
<stop stop-color="#7BACDF" stop-opacity="0"/>
<stop offset="1" stop-color="#7BACDF"/>
</linearGradient>
<linearGradient id="paint7_linear_23124_3890" x1="26.4618" y1="21.3346" x2="28.1389" y2="21.3346" gradientUnits="userSpaceOnUse">
<stop stop-color="#7BACDF" stop-opacity="0"/>
<stop offset="1" stop-color="#7BACDF"/>
</linearGradient>
<linearGradient id="paint8_linear_23124_3890" x1="25.962" y1="22.1074" x2="25.445" y2="18.6871" gradientUnits="userSpaceOnUse">
<stop stop-color="#7BACDF" stop-opacity="0"/>
<stop offset="1" stop-color="#7BACDF"/>
</linearGradient>
<linearGradient id="paint9_linear_23124_3890" x1="14.0565" y1="19.3304" x2="16.4423" y2="21.7162" gradientUnits="userSpaceOnUse">
<stop stop-color="#62DBFB"/>
<stop offset="0.191" stop-color="#57D5FA"/>
<stop offset="0.523" stop-color="#3BC5F7"/>
<stop offset="0.954" stop-color="#0DABF2"/>
<stop offset="1" stop-color="#08A9F1"/>
</linearGradient>
<linearGradient id="paint10_linear_23124_3890" x1="18.2264" y1="19.3304" x2="20.6122" y2="21.7162" gradientUnits="userSpaceOnUse">
<stop stop-color="#62DBFB"/>
<stop offset="0.191" stop-color="#57D5FA"/>
<stop offset="0.523" stop-color="#3BC5F7"/>
<stop offset="0.954" stop-color="#0DABF2"/>
<stop offset="1" stop-color="#08A9F1"/>
</linearGradient>
<linearGradient id="paint11_linear_23124_3890" x1="14.0565" y1="23.4296" x2="16.4423" y2="25.8153" gradientUnits="userSpaceOnUse">
<stop stop-color="#62DBFB"/>
<stop offset="0.191" stop-color="#57D5FA"/>
<stop offset="0.523" stop-color="#3BC5F7"/>
<stop offset="0.954" stop-color="#0DABF2"/>
<stop offset="1" stop-color="#08A9F1"/>
</linearGradient>
<linearGradient id="paint12_linear_23124_3890" x1="18.2264" y1="23.4296" x2="20.6122" y2="25.8153" gradientUnits="userSpaceOnUse">
<stop stop-color="#62DBFB"/>
<stop offset="0.191" stop-color="#57D5FA"/>
<stop offset="0.523" stop-color="#3BC5F7"/>
<stop offset="0.954" stop-color="#0DABF2"/>
<stop offset="1" stop-color="#08A9F1"/>
</linearGradient>
<linearGradient id="paint13_linear_23124_3890" x1="14.9322" y1="19.4801" x2="14.9322" y2="18.3807" gradientUnits="userSpaceOnUse">
<stop stop-color="#0593FC" stop-opacity="0"/>
<stop offset="0.683" stop-color="#0389FC" stop-opacity="0.683"/>
<stop offset="1" stop-color="#0182FC"/>
</linearGradient>
<linearGradient id="paint14_linear_23124_3890" x1="14.3949" y1="20.2062" x2="13.2576" y2="20.2062" gradientUnits="userSpaceOnUse">
<stop stop-color="#0593FC" stop-opacity="0"/>
<stop offset="0.683" stop-color="#0389FC" stop-opacity="0.683"/>
<stop offset="1" stop-color="#0182FC"/>
</linearGradient>
<linearGradient id="paint15_linear_23124_3890" x1="19.1021" y1="19.4801" x2="19.1021" y2="18.3807" gradientUnits="userSpaceOnUse">
<stop stop-color="#0593FC" stop-opacity="0"/>
<stop offset="0.683" stop-color="#0389FC" stop-opacity="0.683"/>
<stop offset="1" stop-color="#0182FC"/>
</linearGradient>
<linearGradient id="paint16_linear_23124_3890" x1="18.5649" y1="20.2062" x2="17.4276" y2="20.2062" gradientUnits="userSpaceOnUse">
<stop stop-color="#0593FC" stop-opacity="0"/>
<stop offset="0.683" stop-color="#0389FC" stop-opacity="0.683"/>
<stop offset="1" stop-color="#0182FC"/>
</linearGradient>
<linearGradient id="paint17_linear_23124_3890" x1="14.9322" y1="23.5793" x2="14.9322" y2="22.4798" gradientUnits="userSpaceOnUse">
<stop stop-color="#0593FC" stop-opacity="0"/>
<stop offset="0.683" stop-color="#0389FC" stop-opacity="0.683"/>
<stop offset="1" stop-color="#0182FC"/>
</linearGradient>
<linearGradient id="paint18_linear_23124_3890" x1="14.3949" y1="24.3053" x2="13.2576" y2="24.3053" gradientUnits="userSpaceOnUse">
<stop stop-color="#0593FC" stop-opacity="0"/>
<stop offset="0.683" stop-color="#0389FC" stop-opacity="0.683"/>
<stop offset="1" stop-color="#0182FC"/>
</linearGradient>
<linearGradient id="paint19_linear_23124_3890" x1="19.1021" y1="23.5793" x2="19.1021" y2="22.4798" gradientUnits="userSpaceOnUse">
<stop stop-color="#0593FC" stop-opacity="0"/>
<stop offset="0.683" stop-color="#0389FC" stop-opacity="0.683"/>
<stop offset="1" stop-color="#0182FC"/>
</linearGradient>
<linearGradient id="paint20_linear_23124_3890" x1="18.5649" y1="24.3053" x2="17.4276" y2="24.3053" gradientUnits="userSpaceOnUse">
<stop stop-color="#0593FC" stop-opacity="0"/>
<stop offset="0.683" stop-color="#0389FC" stop-opacity="0.683"/>
<stop offset="1" stop-color="#0182FC"/>
</linearGradient>
<linearGradient id="paint21_linear_23124_3890" x1="20.0912" y1="8.25241" x2="24.3567" y2="17.3502" gradientUnits="userSpaceOnUse">
<stop stop-color="#FD4755"/>
<stop offset="0.336" stop-color="#E43F48"/>
<stop offset="1" stop-color="#A72B2B"/>
</linearGradient>
<linearGradient id="paint22_linear_23124_3890" x1="25.0814" y1="15.8014" x2="26.6921" y2="14.31" gradientUnits="userSpaceOnUse">
<stop stop-color="#A72B2B" stop-opacity="0"/>
<stop offset="1" stop-color="#481F05"/>
</linearGradient>
<linearGradient id="paint23_linear_23124_3890" x1="24.9288" y1="17.4662" x2="24.9288" y2="19.5025" gradientUnits="userSpaceOnUse">
<stop stop-color="#A72B2B" stop-opacity="0"/>
<stop offset="1" stop-color="#481F05"/>
</linearGradient>
<linearGradient id="paint24_linear_23124_3890" x1="15.9186" y1="13.0152" x2="17.3733" y2="20.0355" gradientUnits="userSpaceOnUse">
<stop stop-color="#FD4755"/>
<stop offset="0.336" stop-color="#E43F48"/>
<stop offset="1" stop-color="#A72B2B"/>
</linearGradient>
<linearGradient id="paint25_linear_23124_3890" x1="17.0168" y1="17.2688" x2="17.0168" y2="12.8821" gradientUnits="userSpaceOnUse">
<stop stop-color="#A72B2B" stop-opacity="0"/>
<stop offset="1" stop-color="#481F05"/>
</linearGradient>
<linearGradient id="paint26_linear_23124_3890" x1="22.1479" y1="17.7528" x2="23.7418" y2="19.3467" gradientUnits="userSpaceOnUse">
<stop stop-color="#A72B2B" stop-opacity="0"/>
<stop offset="1" stop-color="#481F05"/>
</linearGradient>
<linearGradient id="paint27_linear_23124_3890" x1="11.8862" y1="17.7528" x2="10.2923" y2="19.3467" gradientUnits="userSpaceOnUse">
<stop stop-color="#A72B2B" stop-opacity="0"/>
<stop offset="1" stop-color="#481F05"/>
</linearGradient>
<clipPath id="clip0_23124_3890">
<rect width="20" height="20" fill="white" transform="translate(10 10)"/>
</clipPath>
</defs>
</svg>
