<svg width="20" height="20" viewBox="0 0 20 20" fill="none" xmlns="http://www.w3.org/2000/svg">
<path d="M16.7656 6.5625C16.7466 6.62521 16.7215 6.68591 16.6906 6.74375L17.4312 7.48438L17.4156 7.5H12.5844L12.5688 7.48438L13.3094 6.74375C13.2785 6.68591 13.2534 6.62521 13.2344 6.5625H12.1875V5.3125H13.2344C13.2534 5.24979 13.2785 5.18909 13.3094 5.13125L12.5688 4.39062L13.4531 3.50625L14.1937 4.24688C14.2516 4.21605 14.3123 4.19093 14.375 4.17188V3.125H15.625V4.17188C15.6877 4.19093 15.7484 4.21605 15.8063 4.24688L16.5469 3.50625L17.4312 4.39062L16.6906 5.13125C16.7215 5.18909 16.7466 5.24979 16.7656 5.3125H17.8125V6.5625H16.7656Z" fill="#ED1C24"/>
<path d="M15 6.875C15.5178 6.875 15.9375 6.45527 15.9375 5.9375C15.9375 5.41973 15.5178 5 15 5C14.4822 5 14.0625 5.41973 14.0625 5.9375C14.0625 6.45527 14.4822 6.875 15 6.875Z" fill="#E6E7E8"/>
<path d="M7.1875 7.1875H12.5V15.625H7.1875V7.1875Z" fill="#C49A6C"/>
<path d="M12.5 7.1875H17.8125V15.625H12.5V7.1875Z" fill="#A97C50"/>
<path d="M12.5 15V15.9375L17.8125 15.625V9.6875C17.8125 11.0965 17.2528 12.4477 16.2565 13.444C15.2602 14.4403 13.909 15 12.5 15Z" fill="#8B5E3C"/>
<path d="M18.8375 14.1875C18.7762 14.081 18.6945 13.9876 18.597 13.9127C18.4996 13.8378 18.3884 13.7828 18.2697 13.7509C18.151 13.7189 18.0271 13.7107 17.9053 13.7267C17.7834 13.7426 17.6659 13.7824 17.5594 13.8438L14.225 15.7688H14.2234C14.179 15.6142 14.0954 15.4738 13.9808 15.361C13.8661 15.2482 13.7243 15.1669 13.5691 15.125L8.90656 13.875C8.59898 13.7927 8.27548 13.79 7.96656 13.8672L5.9375 14.375V18.125L6.79156 18.5522C7.05193 18.6823 7.33897 18.75 7.63 18.75H12.3103C12.6393 18.7505 12.9627 18.6643 13.2478 18.5L18.4978 15.4688C18.7127 15.3439 18.8692 15.1388 18.9329 14.8985C18.9966 14.6582 18.9623 14.4025 18.8375 14.1875Z" fill="#FFBCAB"/>
<path d="M14.2237 15.7685C14.218 15.7501 14.214 15.731 14.2074 15.7129C14.2009 15.7321 14.1937 15.7511 14.1858 15.7698C14.0987 15.9781 13.9391 16.1478 13.7366 16.2475C13.534 16.3472 13.3022 16.3703 13.084 16.3123L11.4224 15.8673L9.80959 15.4335C9.77023 15.423 9.72916 15.4206 9.68883 15.4264C9.64851 15.4322 9.60977 15.4461 9.57495 15.4672C9.54013 15.4883 9.50994 15.5163 9.48619 15.5494C9.46245 15.5825 9.44564 15.62 9.43678 15.6598C9.42004 15.7357 9.4332 15.8152 9.47353 15.8816C9.51387 15.9481 9.57827 15.9965 9.65334 16.0167L13.0327 16.9229C13.2478 16.9852 13.4777 16.9719 13.6841 16.8851C13.8905 16.7983 14.0609 16.6433 14.1668 16.446C14.2714 16.2357 14.2918 15.9934 14.2237 15.7685Z" fill="#FF9478"/>
<path d="M9.99977 1.11865V3.4374L9.06227 4.0624L8.12477 3.4374V1.11865C7.73072 1.2781 7.38383 1.53539 7.11689 1.86622C6.84995 2.19704 6.67177 2.59047 6.5992 3.00932C6.52663 3.42817 6.56206 3.85861 6.70214 4.25996C6.84222 4.6613 7.08233 5.0203 7.39977 5.30303C7.53027 5.41908 7.63455 5.56159 7.70568 5.72109C7.7768 5.88058 7.81314 6.0534 7.81227 6.22803V7.1874H10.3123V6.22803C10.3114 6.0534 10.3477 5.88058 10.4189 5.72109C10.49 5.56159 10.5943 5.41908 10.7248 5.30303C11.0422 5.0203 11.2823 4.6613 11.4224 4.25996C11.5625 3.85861 11.5979 3.42817 11.5253 3.00932C11.4528 2.59047 11.2746 2.19704 11.0077 1.86622C10.7407 1.53539 10.3938 1.2781 9.99977 1.11865Z" fill="#FF9811"/>
<path d="M3.4375 13.4375V19.0625H5.9375V13.4375H3.4375Z" fill="#006DF0"/>
<path d="M0.9375 14.0625H3.4375V18.4375H0.9375V14.0625Z" fill="#005ECE"/>
<path d="M9.0625 7.1875H7.1875L5.9375 9.6875H11.25L12.5 7.1875H10.3125H9.0625Z" fill="#A97C50"/>
<path d="M17.4156 7.1875H12.5L13.75 9.6875H19.0625L17.8125 7.1875H17.4156Z" fill="#8B5E3C"/>
<path d="M2.8125 14.0625H3.4375V18.4375H2.8125V14.0625Z" fill="#004FAC"/>
</svg>
