<svg width="40" height="40" viewBox="0 0 40 40" fill="none" xmlns="http://www.w3.org/2000/svg">
<rect width="40" height="40" rx="20" fill="#F5F5F7"/>
<path fill-rule="evenodd" clip-rule="evenodd" d="M22.0074 23.6569C18.9556 27.2081 25.0593 27.2081 22.0074 23.6569V23.6569ZM18.4042 16.5341V14.818H19.739C19.8249 14.954 19.9526 15.0585 20.103 15.1156C20.2534 15.1727 20.4182 15.1794 20.5727 15.1347C20.7272 15.09 20.8631 14.9963 20.9597 14.8678C21.0564 14.7392 21.1086 14.5827 21.1086 14.4218C21.1086 14.261 21.0564 14.1045 20.9597 13.9759C20.8631 13.8473 20.7272 13.7537 20.5727 13.709C20.4182 13.6643 20.2534 13.671 20.103 13.7281C19.9526 13.7852 19.8249 13.8896 19.739 14.0256H18.4249C18.3581 13.9196 18.2654 13.8323 18.1556 13.7718C18.0459 13.7112 17.9226 13.6795 17.7972 13.6796C17.6719 13.6796 17.5486 13.7113 17.4389 13.7718C17.3291 13.8323 17.2365 13.9196 17.1696 14.0256H15.8556C15.7697 13.8896 15.6419 13.7852 15.4916 13.7281C15.3412 13.671 15.1763 13.6643 15.0218 13.709C14.8673 13.7537 14.7315 13.8473 14.6349 13.9759C14.5382 14.1045 14.4859 14.261 14.4859 14.4218C14.4859 14.5827 14.5382 14.7392 14.6349 14.8678C14.7315 14.9963 14.8673 15.09 15.0218 15.1347C15.1763 15.1794 15.3412 15.1727 15.4916 15.1156C15.6419 15.0585 15.7697 14.954 15.8556 14.818H17.1903V16.5343L18.4042 16.5341ZM19.5405 17.4003C19.5402 17.2743 19.49 17.1536 19.4009 17.0645C19.3119 16.9754 19.1912 16.9252 19.0652 16.9248H16.5294C16.4034 16.9251 16.2827 16.9753 16.1936 17.0644C16.1045 17.1535 16.0543 17.2742 16.0539 17.4002V19.936C16.0543 20.062 16.1046 20.1827 16.1936 20.2717C16.2827 20.3608 16.4034 20.411 16.5294 20.4113H19.0652C19.1911 20.4109 19.3118 20.3607 19.4009 20.2717C19.4899 20.1826 19.5401 20.0619 19.5405 19.936V17.4003ZM15.6634 17.4003H13.1947V19.936H15.6634V17.4003ZM12.8041 19.936V16.8258C12.8038 16.7569 12.7764 16.6908 12.7276 16.642C12.6789 16.5933 12.6128 16.5658 12.5438 16.5656H11.3682V20.7706H12.5438C12.6128 20.7704 12.6789 20.743 12.7276 20.6942C12.7764 20.6454 12.8039 20.5794 12.8041 20.5104V19.936ZM23.2753 19.1902C23.2753 18.2059 22.4699 17.4002 21.4854 17.4002H19.9312V19.936H19.9342C20.3775 19.936 20.7396 20.2978 20.7396 20.7414V21.6919H23.2753V19.1902ZM20.7395 22.0825V22.6363C20.7395 22.7201 20.8079 22.7885 20.8917 22.7885H23.123C23.2069 22.7885 23.2753 22.7201 23.2753 22.6363V22.0825H20.7395ZM27.078 18.5099C27.1501 17.4695 27.8418 15.9122 28.3157 15.1202C29.267 13.5308 27.8936 12.1069 26.5291 11.3647C26.3834 11.2856 26.2409 11.2294 26.1082 11.2109L26.7444 13.5855C26.7639 13.6589 26.7535 13.7371 26.7155 13.8029C26.6775 13.8687 26.615 13.9168 26.5417 13.9367L24.5408 14.4729L23.4708 14.7596L22.8718 14.9201C22.8363 14.9291 22.8036 14.947 22.777 14.9721C22.7503 14.9972 22.7306 15.0288 22.7196 15.0637C22.7076 15.0983 22.7046 15.1354 22.711 15.1715C22.7174 15.2075 22.733 15.2414 22.7561 15.2697C23.0189 15.6014 23.5206 15.8825 23.5206 15.8825C24.3796 16.386 24.8536 17.5206 24.899 18.51L27.078 18.5099ZM25.2253 16.2116C25.1712 16.2259 25.1137 16.2183 25.0652 16.1903C25.0168 16.1623 24.9814 16.1163 24.9668 16.0623L24.7963 15.4261C24.782 15.3721 24.7897 15.3146 24.8177 15.2662C24.8456 15.2178 24.8916 15.1824 24.9456 15.1678L25.6526 14.9782L25.9322 16.0221L25.2253 16.2116ZM27.0162 15.7318L26.3091 15.9212L26.0293 14.8773L26.7364 14.6878C26.8486 14.6578 26.9649 14.725 26.9948 14.8371L27.1653 15.4733C27.1953 15.5854 27.1283 15.7018 27.0162 15.7318ZM27.1803 27.5959L27.0744 18.9005H24.9L24.794 27.5959C24.7859 28.2543 25.3332 28.789 25.9872 28.789C26.6434 28.789 27.1883 28.2521 27.1803 27.5959ZM25.9872 27.1026C26.1176 27.1026 26.2426 27.1543 26.3347 27.2465C26.4269 27.3387 26.4787 27.4637 26.4787 27.594C26.4787 27.7244 26.4269 27.8494 26.3347 27.9416C26.2426 28.0337 26.1176 28.0855 25.9872 28.0855C25.8569 28.0855 25.7319 28.0337 25.6397 27.9416C25.5475 27.8494 25.4957 27.7244 25.4957 27.594C25.4957 27.4637 25.5475 27.3387 25.6397 27.2465C25.7319 27.1543 25.8569 27.1026 25.9872 27.1026ZM26.1815 19.5939V26.214C26.1815 26.2658 26.1609 26.3154 26.1243 26.352C26.0876 26.3887 26.038 26.4092 25.9862 26.4092C25.9344 26.4092 25.8847 26.3887 25.8481 26.352C25.8115 26.3154 25.7909 26.2658 25.7909 26.214V19.5939C25.7909 19.5421 25.8115 19.4924 25.8481 19.4558C25.8847 19.4192 25.9344 19.3986 25.9862 19.3986C26.038 19.3986 26.0876 19.4192 26.1243 19.4558C26.1609 19.4924 26.1815 19.5421 26.1815 19.5939Z" fill="url(#paint0_linear_23124_4842)"/>
<path fill-rule="evenodd" clip-rule="evenodd" d="M24.4398 14.0958L23.7798 11.6328C23.1101 12.4141 23.29 13.8601 23.3821 14.3791L24.4398 14.0958Z" fill="url(#paint1_linear_23124_4842)"/>
<defs>
<linearGradient id="paint0_linear_23124_4842" x1="11.3682" y1="20" x2="28.6316" y2="20" gradientUnits="userSpaceOnUse">
<stop stop-color="#042D63"/>
<stop offset="1" stop-color="#03A188"/>
</linearGradient>
<linearGradient id="paint1_linear_23124_4842" x1="23.2891" y1="13.006" x2="24.4398" y2="13.006" gradientUnits="userSpaceOnUse">
<stop stop-color="#042D63"/>
<stop offset="1" stop-color="#03A188"/>
</linearGradient>
</defs>
</svg>
