<svg width="20" height="19" viewBox="0 0 20 19" fill="none" xmlns="http://www.w3.org/2000/svg">
<path d="M5.20795 14.5837C3.87385 14.5837 2.68718 13.7295 2.25623 12.4578L2.22709 12.362C2.12545 12.0252 2.08287 11.742 2.08287 11.4587V5.77676L0.061178 12.5253C-0.198829 13.5179 0.393686 14.547 1.38781 14.8212L14.2741 18.2722C14.4308 18.313 14.5921 18.3337 14.7541 18.3338C15.584 18.3338 16.3424 17.783 16.555 16.9712L17.3058 14.5837H5.20795ZM7.49973 5.83352C8.41897 5.83352 9.16633 5.08596 9.16633 4.16676C9.16633 3.24756 8.41897 2.5 7.49973 2.5C6.58048 2.5 5.83297 3.2476 5.83297 4.16676C5.83297 5.08593 6.58052 5.83352 7.49973 5.83352Z" fill="url(#paint0_linear_23163_3399)"/>
<path d="M17.9167 0H5.41634C4.26811 0 3.33301 0.935102 3.33301 2.08349V11.2503C3.33301 12.3987 4.26811 13.3338 5.41634 13.3338H17.9167C19.0651 13.3338 20.0001 12.3987 20.0001 11.2503V2.08349C20.0001 0.935102 19.0651 0 17.9167 0ZM5.41634 1.66676H17.9167C18.1468 1.66676 18.3334 1.85341 18.3334 2.08349V7.99946L15.7009 4.92766C15.4216 4.6002 15.0174 4.42515 14.5833 4.41527C14.1516 4.41769 13.7466 4.60934 13.47 4.94106L10.3748 8.65608L9.36648 7.65019C8.79655 7.08026 7.86898 7.08026 7.29979 7.65019L4.99977 9.94947V2.08345C4.99977 1.85337 5.18641 1.66676 5.41634 1.66676Z" fill="url(#paint1_linear_23163_3399)"/>
<defs>
<linearGradient id="paint0_linear_23163_3399" x1="0" y1="10.4169" x2="17.3058" y2="10.4169" gradientUnits="userSpaceOnUse">
<stop stop-color="#042D63"/>
<stop offset="1" stop-color="#03A188"/>
</linearGradient>
<linearGradient id="paint1_linear_23163_3399" x1="3.33301" y1="6.66689" x2="20.0001" y2="6.66689" gradientUnits="userSpaceOnUse">
<stop stop-color="#042D63"/>
<stop offset="1" stop-color="#03A188"/>
</linearGradient>
</defs>
</svg>
