<svg width="168" height="47" viewBox="0 0 168 47" fill="none" xmlns="http://www.w3.org/2000/svg">
<g clip-path="url(#clip0_23585_2156)">
<path d="M30.9092 38.3831L24.494 18.562H17.4434L11.2978 38.8605L6.82335 18.562H0L7.20842 46.9076H13.8046L20.8936 26.4319L27.898 46.9076H35.5338L42.0914 18.562H35.3605L31.0593 38.8451L30.9092 38.3831Z" fill="#024451"/>
<path d="M56.181 18.4468C53.0747 18.4537 49.9847 18.8957 47.001 19.7597V25.0114C49.9866 24.1587 53.0759 23.7233 56.181 23.7178C61.3524 23.7178 63.9785 25.1154 63.9785 27.8722V30.0938L63.6666 30.036C61.4587 29.6477 59.2198 29.4634 56.9781 29.4854C48.7993 29.4854 44.656 32.4001 44.656 38.1408C44.656 43.9585 48.5066 46.9078 56.1271 46.9078C58.8996 46.9138 61.629 46.2213 64.0632 44.8941L64.2019 44.821L64.3328 44.9057L67.4133 46.9078H70.4938V27.7336C70.4861 21.4846 65.8076 18.4468 56.181 18.4468ZM63.9785 39.2381L63.8707 39.319C61.7567 40.8591 59.1498 41.6291 56.1232 41.6291C53.0196 41.6291 51.4447 40.424 51.4447 38.0561C51.4447 35.6882 53.3084 34.4831 56.9781 34.4831C59.2535 34.4494 61.5269 34.6351 63.7667 35.0375L63.9785 35.0798V39.2381Z" fill="#024451"/>
<path d="M86.4586 18.4468C83.3537 18.454 80.265 18.896 77.2825 19.7597V25.0114C80.2669 24.1589 83.3549 23.7236 86.4586 23.7178C91.6339 23.7178 94.2562 25.1154 94.2562 27.8722V30.0938L93.9482 30.036C91.7402 29.6477 89.5013 29.4634 87.2596 29.4854C79.0808 29.4854 74.9375 32.4001 74.9375 38.1408C74.9375 43.9585 78.7882 46.9078 86.4086 46.9078C89.1811 46.9135 91.9104 46.221 94.3448 44.8941L94.4834 44.821L94.6105 44.9057L97.691 46.9078H100.772V27.7336C100.768 21.4846 96.0891 18.4468 86.4586 18.4468ZM94.2562 39.2381L94.1484 39.319C92.0344 40.8591 89.4313 41.6291 86.4047 41.6291C83.3011 41.6291 81.7262 40.424 81.7262 38.0561C81.7262 35.6882 83.5899 34.4831 87.2596 34.4831C89.535 34.4494 91.8084 34.6351 94.0483 35.0375L94.2562 35.0798V39.2381Z" fill="#024451"/>
<path d="M135.939 18.5391H129.478V47.0001H135.939V18.5391Z" fill="#024451"/>
<path d="M149.286 18.5391H142.824V47.0001H149.286V18.5391Z" fill="#024451"/>
<path d="M106.632 28.1761V46.9345H113.144V35.1181H121.838V29.8509H113.144V29.5891C113.144 25.3538 115.142 23.1977 119.089 23.1977C120.905 23.1775 122.715 23.4213 124.461 23.9215V18.6852C122.726 18.1685 120.926 17.9091 119.116 17.9151C110.714 17.9151 106.632 21.2726 106.632 28.1761Z" fill="#024451"/>
<path d="M168 13.5067H154.496V0H159.09V8.91333H168V13.5067Z" fill="#07A188"/>
<path d="M168.004 0H162.794V5.20939H168.004V0Z" fill="#07A188"/>
<path d="M168 18.5698H154.496V32.0765H159.09V23.1632H168V18.5698Z" fill="#7FB041"/>
<path d="M168.004 26.8672H162.794V32.0766H168.004V26.8672Z" fill="#7FB041"/>
<path d="M135.909 13.5067H149.417V0H144.823V8.91333H135.909V13.5067Z" fill="#F58220"/>
<path d="M135.909 5.20557L141.119 5.20557V-0.00382137L135.909 -0.00382137V5.20557Z" fill="#F58220"/>
</g>
<defs>
<clipPath id="clip0_23585_2156">
<rect width="168" height="47" fill="white"/>
</clipPath>
</defs>
</svg>
